<?xml version="1.0" encoding="UTF-8" standalone="no"?>
<!-- Created with Inkscape (http://www.inkscape.org/) -->

<svg
   version="1.1"
   id="svg4345"
   xml:space="preserve"
   width="2560"
   height="1440"
   viewBox="0 0 2560 1440"
   sodipodi:docname="pruning.svg"
   inkscape:version="1.1.1 (c3084ef, 2021-09-22)"
   xmlns:inkscape="http://www.inkscape.org/namespaces/inkscape"
   xmlns:sodipodi="http://sodipodi.sourceforge.net/DTD/sodipodi-0.dtd"
   xmlns="http://www.w3.org/2000/svg"
   xmlns:svg="http://www.w3.org/2000/svg"><defs
     id="defs4349"><clipPath
       clipPathUnits="userSpaceOnUse"
       id="clipPath4361"><path
         d="M 0,0 H 1920 V 1080 H 0 Z"
         id="path4359" /></clipPath></defs><sodipodi:namedview
     id="namedview4347"
     pagecolor="#ffffff"
     bordercolor="#666666"
     borderopacity="1.0"
     inkscape:pageshadow="2"
     inkscape:pageopacity="0.0"
     inkscape:pagecheckerboard="0"
     showgrid="false"
     inkscape:zoom="0.43402778"
     inkscape:cx="1279.872"
     inkscape:cy="720"
     inkscape:window-width="1376"
     inkscape:window-height="847"
     inkscape:window-x="0"
     inkscape:window-y="25"
     inkscape:window-maximized="0"
     inkscape:current-layer="g4351" /><g
     id="g4351"
     inkscape:groupmode="layer"
     inkscape:label="Figures (glisseÌ(e)s) 5"
     transform="matrix(1.3333333,0,0,-1.3333333,0,1440)"><g
       id="g4353" /><g
       id="g4355"><g
         id="g4357"
         clip-path="url(#clipPath4361)"><path
           d="M 0,0 H 1920 V 1080 H 0 Z"
           style="fill:#232427;fill-opacity:1;fill-rule:nonzero;stroke:none"
           id="path4363" /><g
           id="g4365"
           transform="matrix(1,0,0,-1,104.8369,1040.689)"><path
             d="m 85.35534,14.64466 c 19.52626,19.52622 19.52626,51.18446 0,70.71068 -19.52622,19.52626 -51.18446,19.52626 -70.71068,0 -19.526214,-19.52622 -19.526214,-51.18446 0,-70.71068 19.52622,-19.526214 51.18446,-19.526214 70.71068,0 z"
             style="fill:none;stroke:#ff9301;stroke-width:4;stroke-linecap:butt;stroke-linejoin:miter;stroke-miterlimit:4;stroke-dasharray:none;stroke-opacity:1"
             id="path4367" /></g><g
           id="g4369"
           transform="matrix(1,0,0,-1,254.8369,1040.689)"><path
             d="m 85.35534,14.64466 c 19.52626,19.52622 19.52626,51.18446 0,70.71068 -19.52622,19.52626 -51.18446,19.52626 -70.71068,0 -19.526214,-19.52622 -19.526214,-51.18446 0,-70.71068 19.52622,-19.526214 51.18446,-19.526214 70.71068,0 z"
             style="fill:none;stroke:#ff9301;stroke-width:4;stroke-linecap:butt;stroke-linejoin:miter;stroke-miterlimit:4;stroke-dasharray:none;stroke-opacity:1"
             id="path4371" /></g><g
           id="g4373"
           transform="matrix(1,0,0,-1,404.8369,1040.689)"><path
             d="m 85.35534,14.64466 c 19.52626,19.52622 19.52626,51.18446 0,70.71068 -19.52622,19.52626 -51.18446,19.52626 -70.71068,0 -19.526214,-19.52622 -19.526214,-51.18446 0,-70.71068 19.52622,-19.526214 51.18446,-19.526214 70.71068,0 z"
             style="fill:none;stroke:#ff9301;stroke-width:4;stroke-linecap:butt;stroke-linejoin:miter;stroke-miterlimit:4;stroke-dasharray:none;stroke-opacity:1"
             id="path4375" /></g><g
           id="g4377"
           transform="matrix(1,0,0,-1,554.8369,1040.689)"><path
             d="m 85.35534,14.64466 c 19.52626,19.52622 19.52626,51.18446 0,70.71068 -19.52622,19.52626 -51.18446,19.52626 -70.71068,0 -19.526214,-19.52622 -19.526214,-51.18446 0,-70.71068 19.52622,-19.526214 51.18446,-19.526214 70.71068,0 z"
             style="fill:none;stroke:#ff9301;stroke-width:4;stroke-linecap:butt;stroke-linejoin:miter;stroke-miterlimit:4;stroke-dasharray:none;stroke-opacity:1"
             id="path4379" /></g><g
           id="g4381"
           transform="matrix(1,0,0,-1,700,1040.689)"><path
             d="m 85.35534,14.64466 c 19.52626,19.52622 19.52626,51.18446 0,70.71068 -19.52622,19.52626 -51.18446,19.52626 -70.71068,0 -19.526214,-19.52622 -19.526214,-51.18446 0,-70.71068 19.52622,-19.526214 51.18446,-19.526214 70.71068,0 z"
             style="fill:none;stroke:#ff9301;stroke-width:4;stroke-linecap:butt;stroke-linejoin:miter;stroke-miterlimit:4;stroke-dasharray:none;stroke-opacity:1"
             id="path4383" /></g><g
           id="g4385"
           transform="matrix(1,0,0,-1,179.8369,775.7639)"><path
             d="m 85.35534,14.64466 c 19.52626,19.52622 19.52626,51.18446 0,70.71068 -19.52622,19.52626 -51.18446,19.52626 -70.71068,0 -19.526214,-19.52622 -19.526214,-51.18446 0,-70.71068 19.52622,-19.526214 51.18446,-19.526214 70.71068,0 z"
             style="fill:none;stroke:#ff9301;stroke-width:4;stroke-linecap:butt;stroke-linejoin:miter;stroke-miterlimit:4;stroke-dasharray:none;stroke-opacity:1"
             id="path4387" /></g><g
           id="g4389"
           transform="matrix(1,0,0,-1,329.8369,775.7639)"><path
             d="m 85.35534,14.64466 c 19.52626,19.52622 19.52626,51.18446 0,70.71068 -19.52622,19.52626 -51.18446,19.52626 -70.71068,0 -19.526214,-19.52622 -19.526214,-51.18446 0,-70.71068 19.52622,-19.526214 51.18446,-19.526214 70.71068,0 z"
             style="fill:none;stroke:#ff9301;stroke-width:4;stroke-linecap:butt;stroke-linejoin:miter;stroke-miterlimit:4;stroke-dasharray:none;stroke-opacity:1"
             id="path4391" /></g><g
           id="g4393"
           transform="matrix(1,0,0,-1,479.8369,775.7639)"><path
             d="m 85.35534,14.64466 c 19.52626,19.52622 19.52626,51.18446 0,70.71068 -19.52622,19.52626 -51.18446,19.52626 -70.71068,0 -19.526214,-19.52622 -19.526214,-51.18446 0,-70.71068 19.52622,-19.526214 51.18446,-19.526214 70.71068,0 z"
             style="fill:none;stroke:#ff9301;stroke-width:4;stroke-linecap:butt;stroke-linejoin:miter;stroke-miterlimit:4;stroke-dasharray:none;stroke-opacity:1"
             id="path4395" /></g><g
           id="g4397"
           transform="matrix(1,0,0,-1,629.8369,775.7639)"><path
             d="m 85.35534,14.64466 c 19.52626,19.52622 19.52626,51.18446 0,70.71068 -19.52622,19.52626 -51.18446,19.52626 -70.71068,0 -19.526214,-19.52622 -19.526214,-51.18446 0,-70.71068 19.52622,-19.526214 51.18446,-19.526214 70.71068,0 z"
             style="fill:none;stroke:#ff9301;stroke-width:4;stroke-linecap:butt;stroke-linejoin:miter;stroke-miterlimit:4;stroke-dasharray:none;stroke-opacity:1"
             id="path4399" /></g><g
           id="g4401"
           transform="matrix(1,0,0,-1,254.8369,510.8387)"><path
             d="m 85.35534,14.64466 c 19.52626,19.52622 19.52626,51.18446 0,70.71068 -19.52622,19.52626 -51.18446,19.52626 -70.71068,0 -19.526214,-19.52622 -19.526214,-51.18446 0,-70.71068 19.52622,-19.526214 51.18446,-19.526214 70.71068,0 z"
             style="fill:none;stroke:#ff9301;stroke-width:4;stroke-linecap:butt;stroke-linejoin:miter;stroke-miterlimit:4;stroke-dasharray:none;stroke-opacity:1"
             id="path4403" /></g><g
           id="g4405"
           transform="matrix(1,0,0,-1,404.8369,510.8387)"><path
             d="m 85.35534,14.64466 c 19.52626,19.52622 19.52626,51.18446 0,70.71068 -19.52622,19.52626 -51.18446,19.52626 -70.71068,0 -19.526214,-19.52622 -19.526214,-51.18446 0,-70.71068 19.52622,-19.526214 51.18446,-19.526214 70.71068,0 z"
             style="fill:none;stroke:#ff9301;stroke-width:4;stroke-linecap:butt;stroke-linejoin:miter;stroke-miterlimit:4;stroke-dasharray:none;stroke-opacity:1"
             id="path4407" /></g><g
           id="g4409"
           transform="matrix(1,0,0,-1,554.8369,510.8387)"><path
             d="m 85.35534,14.64466 c 19.52626,19.52622 19.52626,51.18446 0,70.71068 -19.52622,19.52626 -51.18446,19.52626 -70.71068,0 -19.526214,-19.52622 -19.526214,-51.18446 0,-70.71068 19.52622,-19.526214 51.18446,-19.526214 70.71068,0 z"
             style="fill:none;stroke:#ff9301;stroke-width:4;stroke-linecap:butt;stroke-linejoin:miter;stroke-miterlimit:4;stroke-dasharray:none;stroke-opacity:1"
             id="path4411" /></g><g
           id="g4413"
           transform="matrix(1,0,0,-1,329.8369,245.9136)"><path
             d="m 85.35534,14.64466 c 19.52626,19.52622 19.52626,51.18446 0,70.71068 -19.52622,19.52626 -51.18446,19.52626 -70.71068,0 -19.526214,-19.52622 -19.526214,-51.18446 0,-70.71068 19.52622,-19.526214 51.18446,-19.526214 70.71068,0 z"
             style="fill:none;stroke:#ff9301;stroke-width:4;stroke-linecap:butt;stroke-linejoin:miter;stroke-miterlimit:4;stroke-dasharray:none;stroke-opacity:1"
             id="path4415" /></g><g
           id="g4417"
           transform="matrix(1,0,0,-1,479.8369,245.9136)"><path
             d="m 85.35534,14.64466 c 19.52626,19.52622 19.52626,51.18446 0,70.71068 -19.52622,19.52626 -51.18446,19.52626 -70.71068,0 -19.526214,-19.52622 -19.526214,-51.18446 0,-70.71068 19.52622,-19.526214 51.18446,-19.526214 70.71068,0 z"
             style="fill:none;stroke:#ff9301;stroke-width:4;stroke-linecap:butt;stroke-linejoin:miter;stroke-miterlimit:4;stroke-dasharray:none;stroke-opacity:1"
             id="path4419" /></g><g
           id="g4421"
           transform="matrix(1,0,0,-1,169.0045,940.6441)"><path
             d="M 46.66465,164.8352 0,0"
             style="fill:none;stroke:#ffffff;stroke-width:2;stroke-linecap:butt;stroke-linejoin:miter;stroke-miterlimit:4;stroke-dasharray:none;stroke-opacity:1"
             id="path4423" /></g><g
           id="g4425"
           transform="matrix(1,0,0,-1,319.0045,940.6441)"><path
             d="M 46.66465,164.8352 0,0"
             style="fill:none;stroke:#ffffff;stroke-width:2;stroke-linecap:butt;stroke-linejoin:miter;stroke-miterlimit:4;stroke-dasharray:none;stroke-opacity:1"
             id="path4427" /></g><g
           id="g4429"
           transform="matrix(1,0,0,-1,469.0045,940.6441)"><path
             d="M 0,0 46.66465,164.8352"
             style="fill:none;stroke:#ffffff;stroke-width:2;stroke-linecap:butt;stroke-linejoin:miter;stroke-miterlimit:4;stroke-dasharray:none;stroke-opacity:1"
             id="path4431" /></g><g
           id="g4433"
           transform="matrix(1,0,0,-1,619.0045,940.6441)"><path
             d="M 0,0 46.66465,164.8352"
             style="fill:none;stroke:#ffffff;stroke-width:2;stroke-linecap:butt;stroke-linejoin:miter;stroke-miterlimit:4;stroke-dasharray:none;stroke-opacity:1"
             id="path4435" /></g><g
           id="g4437"
           transform="matrix(1,0,0,-1,693.1523,940.4118)"><path
             d="M 0,164.3707 43.53217,0"
             style="fill:none;stroke:#ffffff;stroke-width:2;stroke-linecap:butt;stroke-linejoin:miter;stroke-miterlimit:4;stroke-dasharray:none;stroke-opacity:1"
             id="path4439" /></g><g
           id="g4441"
           transform="matrix(1,0,0,-1,563.0844,950.6819)"><path
             d="M 0,184.9108 153.6681,0"
             style="fill:none;stroke:#ffffff;stroke-width:2;stroke-linecap:butt;stroke-linejoin:miter;stroke-miterlimit:4;stroke-dasharray:none;stroke-opacity:1"
             id="path4443" /></g><g
           id="g4445"
           transform="matrix(1,0,0,-1,422.1404,960.4125)"><path
             d="M 0,204.372 285.5561,0"
             style="fill:none;stroke:#ffffff;stroke-width:2;stroke-linecap:butt;stroke-linejoin:miter;stroke-miterlimit:4;stroke-dasharray:none;stroke-opacity:1"
             id="path4447" /></g><g
           id="g4449"
           transform="matrix(1,0,0,-1,276.1932,967.0792)"><path
             d="M 0,217.7055 427.4505,0"
             style="fill:none;stroke:#ffffff;stroke-width:2;stroke-linecap:butt;stroke-linejoin:miter;stroke-miterlimit:4;stroke-dasharray:none;stroke-opacity:1"
             id="path4451" /></g><g
           id="g4453"
           transform="matrix(1,0,0,-1,544.0045,940.6441)"><path
             d="M 0,164.8352 46.66465,0"
             style="fill:none;stroke:#ffffff;stroke-width:2;stroke-linecap:butt;stroke-linejoin:miter;stroke-miterlimit:4;stroke-dasharray:none;stroke-opacity:1"
             id="path4455" /></g><g
           id="g4457"
           transform="matrix(1,0,0,-1,413.5104,951.0404)"><path
             d="M 157.653,0 0,185.6277"
             style="fill:none;stroke:#ffffff;stroke-width:2;stroke-linecap:butt;stroke-linejoin:miter;stroke-miterlimit:4;stroke-dasharray:none;stroke-opacity:1"
             id="path4459" /></g><g
           id="g4461"
           transform="matrix(1,0,0,-1,272.3254,960.6723)"><path
             d="M 290.023,0 0,204.8917"
             style="fill:none;stroke:#ffffff;stroke-width:2;stroke-linecap:butt;stroke-linejoin:miter;stroke-miterlimit:4;stroke-dasharray:none;stroke-opacity:1"
             id="path4463" /></g><g
           id="g4465"
           transform="matrix(1,0,0,-1,488.5104,951.0404)"><path
             d="M 0,0 157.653,185.6277"
             style="fill:none;stroke:#ffffff;stroke-width:2;stroke-linecap:butt;stroke-linejoin:miter;stroke-miterlimit:4;stroke-dasharray:none;stroke-opacity:1"
             id="path4467" /></g><g
           id="g4469"
           transform="matrix(1,0,0,-1,394.0045,940.6441)"><path
             d="M 46.66465,0 0,164.8352"
             style="fill:none;stroke:#ffffff;stroke-width:2;stroke-linecap:butt;stroke-linejoin:miter;stroke-miterlimit:4;stroke-dasharray:none;stroke-opacity:1"
             id="path4471" /></g><g
           id="g4473"
           transform="matrix(1,0,0,-1,263.5104,951.0404)"><path
             d="M 157.653,0 0,185.6277"
             style="fill:none;stroke:#ffffff;stroke-width:2;stroke-linecap:butt;stroke-linejoin:miter;stroke-miterlimit:4;stroke-dasharray:none;stroke-opacity:1"
             id="path4475" /></g><g
           id="g4477"
           transform="matrix(1,0,0,-1,347.3254,960.6723)"><path
             d="M 0,0 290.023,204.8917"
             style="fill:none;stroke:#ffffff;stroke-width:2;stroke-linecap:butt;stroke-linejoin:miter;stroke-miterlimit:4;stroke-dasharray:none;stroke-opacity:1"
             id="path4479" /></g><g
           id="g4481"
           transform="matrix(1,0,0,-1,338.5104,951.0404)"><path
             d="M 157.653,185.6277 0,0"
             style="fill:none;stroke:#ffffff;stroke-width:2;stroke-linecap:butt;stroke-linejoin:miter;stroke-miterlimit:4;stroke-dasharray:none;stroke-opacity:1"
             id="path4483" /></g><g
           id="g4485"
           transform="matrix(1,0,0,-1,244.0045,940.6441)"><path
             d="M 46.66465,0 0,164.8352"
             style="fill:none;stroke:#ffffff;stroke-width:2;stroke-linecap:butt;stroke-linejoin:miter;stroke-miterlimit:4;stroke-dasharray:none;stroke-opacity:1"
             id="path4487" /></g><g
           id="g4489"
           transform="matrix(1,0,0,-1,188.5104,951.0404)"><path
             d="M 157.653,185.6277 0,0"
             style="fill:none;stroke:#ffffff;stroke-width:2;stroke-linecap:butt;stroke-linejoin:miter;stroke-miterlimit:4;stroke-dasharray:none;stroke-opacity:1"
             id="path4491" /></g><g
           id="g4493"
           transform="matrix(1,0,0,-1,197.3254,960.6723)"><path
             d="M 290.023,204.8917 0,0"
             style="fill:none;stroke:#ffffff;stroke-width:2;stroke-linecap:butt;stroke-linejoin:miter;stroke-miterlimit:4;stroke-dasharray:none;stroke-opacity:1"
             id="path4495" /></g><g
           id="g4497"
           transform="matrix(1,0,0,-1,201.2809,967.2525)"><path
             d="M 432.1119,218.052 0,0"
             style="fill:none;stroke:#ffffff;stroke-width:2;stroke-linecap:butt;stroke-linejoin:miter;stroke-miterlimit:4;stroke-dasharray:none;stroke-opacity:1"
             id="path4499" /></g><g
           id="g4501"
           transform="matrix(1,0,0,-1,244.0045,675.7189)"><path
             d="M 0,0 46.66465,164.8352"
             style="fill:none;stroke:#ffffff;stroke-width:2;stroke-linecap:butt;stroke-linejoin:miter;stroke-miterlimit:4;stroke-dasharray:none;stroke-opacity:1"
             id="path4503" /></g><g
           id="g4505"
           transform="matrix(1,0,0,-1,263.5104,686.1152)"><path
             d="M 0,0 157.653,185.6278"
             style="fill:none;stroke:#ffffff;stroke-width:2;stroke-linecap:butt;stroke-linejoin:miter;stroke-miterlimit:4;stroke-dasharray:none;stroke-opacity:1"
             id="path4507" /></g><g
           id="g4509"
           transform="matrix(1,0,0,-1,272.3254,695.7472)"><path
             d="M 0,0 290.023,204.8917"
             style="fill:none;stroke:#ffffff;stroke-width:2;stroke-linecap:butt;stroke-linejoin:miter;stroke-miterlimit:4;stroke-dasharray:none;stroke-opacity:1"
             id="path4511" /></g><g
           id="g4513"
           transform="matrix(1,0,0,-1,319.0045,675.7189)"><path
             d="M 46.66465,0 0,164.8352"
             style="fill:none;stroke:#ffffff;stroke-width:2;stroke-linecap:butt;stroke-linejoin:miter;stroke-miterlimit:4;stroke-dasharray:none;stroke-opacity:1"
             id="path4515" /></g><g
           id="g4517"
           transform="matrix(1,0,0,-1,394.0045,675.7189)"><path
             d="M 0,0 46.66465,164.8352"
             style="fill:none;stroke:#ffffff;stroke-width:2;stroke-linecap:butt;stroke-linejoin:miter;stroke-miterlimit:4;stroke-dasharray:none;stroke-opacity:1"
             id="path4519" /></g><g
           id="g4521"
           transform="matrix(1,0,0,-1,413.5104,686.1152)"><path
             d="M 0,0 157.653,185.6278"
             style="fill:none;stroke:#ffffff;stroke-width:2;stroke-linecap:butt;stroke-linejoin:miter;stroke-miterlimit:4;stroke-dasharray:none;stroke-opacity:1"
             id="path4523" /></g><g
           id="g4525"
           transform="matrix(1,0,0,-1,338.5104,686.1152)"><path
             d="M 157.653,0 0,185.6278"
             style="fill:none;stroke:#ffffff;stroke-width:2;stroke-linecap:butt;stroke-linejoin:miter;stroke-miterlimit:4;stroke-dasharray:none;stroke-opacity:1"
             id="path4527" /></g><g
           id="g4529"
           transform="matrix(1,0,0,-1,469.0045,675.7189)"><path
             d="M 46.66465,0 0,164.8352"
             style="fill:none;stroke:#ffffff;stroke-width:2;stroke-linecap:butt;stroke-linejoin:miter;stroke-miterlimit:4;stroke-dasharray:none;stroke-opacity:1"
             id="path4531" /></g><g
           id="g4533"
           transform="matrix(1,0,0,-1,544.0045,675.7189)"><path
             d="M 0,0 46.66465,164.8352"
             style="fill:none;stroke:#ffffff;stroke-width:2;stroke-linecap:butt;stroke-linejoin:miter;stroke-miterlimit:4;stroke-dasharray:none;stroke-opacity:1"
             id="path4535" /></g><g
           id="g4537"
           transform="matrix(1,0,0,-1,347.3254,695.7472)"><path
             d="M 290.023,0 0,204.8917"
             style="fill:none;stroke:#ffffff;stroke-width:2;stroke-linecap:butt;stroke-linejoin:miter;stroke-miterlimit:4;stroke-dasharray:none;stroke-opacity:1"
             id="path4539" /></g><g
           id="g4541"
           transform="matrix(1,0,0,-1,488.5104,686.1152)"><path
             d="M 157.653,0 0,185.6278"
             style="fill:none;stroke:#ffffff;stroke-width:2;stroke-linecap:butt;stroke-linejoin:miter;stroke-miterlimit:4;stroke-dasharray:none;stroke-opacity:1"
             id="path4543" /></g><g
           id="g4545"
           transform="matrix(1,0,0,-1,619.0045,675.7189)"><path
             d="M 46.66465,0 0,164.8352"
             style="fill:none;stroke:#ffffff;stroke-width:2;stroke-linecap:butt;stroke-linejoin:miter;stroke-miterlimit:4;stroke-dasharray:none;stroke-opacity:1"
             id="path4547" /></g><g
           id="g4549"
           transform="matrix(1,0,0,-1,319.0045,410.7938)"><path
             d="M 46.66465,164.8352 0,0"
             style="fill:none;stroke:#ffffff;stroke-width:2;stroke-linecap:butt;stroke-linejoin:miter;stroke-miterlimit:4;stroke-dasharray:none;stroke-opacity:1"
             id="path4551" /></g><g
           id="g4553"
           transform="matrix(1,0,0,-1,338.5104,421.19)"><path
             d="M 157.653,185.6277 0,0"
             style="fill:none;stroke:#ffffff;stroke-width:2;stroke-linecap:butt;stroke-linejoin:miter;stroke-miterlimit:4;stroke-dasharray:none;stroke-opacity:1"
             id="path4555" /></g><g
           id="g4557"
           transform="matrix(1,0,0,-1,394.0045,410.7938)"><path
             d="M 0,164.8351 46.66464,0"
             style="fill:none;stroke:#ffffff;stroke-width:2;stroke-linecap:butt;stroke-linejoin:miter;stroke-miterlimit:4;stroke-dasharray:none;stroke-opacity:1"
             id="path4559" /></g><g
           id="g4561"
           transform="matrix(1,0,0,-1,469.0045,410.7938)"><path
             d="M 46.66465,164.8352 0,0"
             style="fill:none;stroke:#ffffff;stroke-width:2;stroke-linecap:butt;stroke-linejoin:miter;stroke-miterlimit:4;stroke-dasharray:none;stroke-opacity:1"
             id="path4563" /></g><g
           id="g4565"
           transform="matrix(1,0,0,-1,413.5104,421.19)"><path
             d="M 0,185.6277 157.653,0"
             style="fill:none;stroke:#ffffff;stroke-width:2;stroke-linecap:butt;stroke-linejoin:miter;stroke-miterlimit:4;stroke-dasharray:none;stroke-opacity:1"
             id="path4567" /></g><g
           id="g4569"
           transform="matrix(1,0,0,-1,544.0045,410.7938)"><path
             d="M 0,164.8351 46.66464,0"
             style="fill:none;stroke:#ffffff;stroke-width:2;stroke-linecap:butt;stroke-linejoin:miter;stroke-miterlimit:4;stroke-dasharray:none;stroke-opacity:1"
             id="path4571" /></g><g
           id="g4573"
           transform="matrix(1,0,0,-1,1110.365,1040.689)"><path
             d="m 85.35534,14.64466 c 19.52626,19.52622 19.52626,51.18446 0,70.71068 -19.52622,19.52626 -51.18446,19.52626 -70.71068,0 -19.526214,-19.52622 -19.526214,-51.18446 0,-70.71068 19.52622,-19.526214 51.18446,-19.526214 70.71068,0 z"
             style="fill:none;stroke:#ff9301;stroke-width:4;stroke-linecap:butt;stroke-linejoin:miter;stroke-miterlimit:4;stroke-dasharray:none;stroke-opacity:1"
             id="path4575" /></g><g
           id="g4577"
           transform="matrix(1,0,0,-1,1260.365,1040.689)"><path
             d="m 85.35534,14.64466 c 19.52626,19.52622 19.52626,51.18446 0,70.71068 -19.52622,19.52626 -51.18446,19.52626 -70.71068,0 -19.526214,-19.52622 -19.526214,-51.18446 0,-70.71068 19.52622,-19.526214 51.18446,-19.526214 70.71068,0 z"
             style="fill:none;stroke:#ff9301;stroke-width:4;stroke-linecap:butt;stroke-linejoin:miter;stroke-miterlimit:4;stroke-dasharray:none;stroke-opacity:1"
             id="path4579" /></g><g
           id="g4581"
           transform="matrix(1,0,0,-1,1410.365,1040.689)"><path
             d="m 85.35534,14.64466 c 19.52626,19.52622 19.52626,51.18446 0,70.71068 -19.52622,19.52626 -51.18446,19.52626 -70.71068,0 -19.526214,-19.52622 -19.526214,-51.18446 0,-70.71068 19.52622,-19.526214 51.18446,-19.526214 70.71068,0 z"
             style="fill:none;stroke:#ff9301;stroke-width:4;stroke-linecap:butt;stroke-linejoin:miter;stroke-miterlimit:4;stroke-dasharray:none;stroke-opacity:1"
             id="path4583" /></g><g
           id="g4585"
           transform="matrix(1,0,0,-1,1560.365,1040.689)"><path
             d="m 85.35534,14.64466 c 19.52626,19.52622 19.52626,51.18446 0,70.71068 -19.52622,19.52626 -51.18446,19.52626 -70.71068,0 -19.526214,-19.52622 -19.526214,-51.18446 0,-70.71068 19.52622,-19.526214 51.18446,-19.526214 70.71068,0 z"
             style="fill:none;stroke:#ff9301;stroke-width:4;stroke-linecap:butt;stroke-linejoin:miter;stroke-miterlimit:4;stroke-dasharray:none;stroke-opacity:1"
             id="path4587" /></g><g
           id="g4589"
           transform="matrix(1,0,0,-1,1705.528,1040.689)"><path
             d="m 85.35534,14.64466 c 19.52626,19.52622 19.52626,51.18446 0,70.71068 -19.52622,19.52626 -51.18446,19.52626 -70.71068,0 -19.526214,-19.52622 -19.526214,-51.18446 0,-70.71068 19.52622,-19.526214 51.18446,-19.526214 70.71068,0 z"
             style="fill:none;stroke:#ff9301;stroke-width:4;stroke-linecap:butt;stroke-linejoin:miter;stroke-miterlimit:4;stroke-dasharray:none;stroke-opacity:1"
             id="path4591" /></g><g
           id="g4593"
           transform="matrix(1,0,0,-1,1185.365,775.7639)"><path
             d="m 85.35534,14.64466 c 19.52626,19.52622 19.52626,51.18446 0,70.71068 -19.52622,19.52626 -51.18446,19.52626 -70.71068,0 -19.526214,-19.52622 -19.526214,-51.18446 0,-70.71068 19.52622,-19.526214 51.18446,-19.526214 70.71068,0 z"
             style="fill:none;stroke:#ff9301;stroke-width:4;stroke-linecap:butt;stroke-linejoin:miter;stroke-miterlimit:4;stroke-dasharray:none;stroke-opacity:1"
             id="path4595" /></g><g
           id="g4597"
           transform="matrix(1,0,0,-1,1335.365,775.7639)"><path
             d="m 85.35534,14.64466 c 19.52626,19.52622 19.52626,51.18446 0,70.71068 -19.52622,19.52626 -51.18446,19.52626 -70.71068,0 -19.526214,-19.52622 -19.526214,-51.18446 0,-70.71068 19.52622,-19.526214 51.18446,-19.526214 70.71068,0 z"
             style="fill:none;stroke:#ff9301;stroke-width:4;stroke-linecap:butt;stroke-linejoin:miter;stroke-miterlimit:4;stroke-dasharray:none;stroke-opacity:1"
             id="path4599" /></g><g
           id="g4601"
           transform="matrix(1,0,0,-1,1485.365,775.7639)"><path
             d="m 85.35534,14.64466 c 19.52626,19.52622 19.52626,51.18446 0,70.71068 -19.52622,19.52626 -51.18446,19.52626 -70.71068,0 -19.526214,-19.52622 -19.526214,-51.18446 0,-70.71068 19.52622,-19.526214 51.18446,-19.526214 70.71068,0 z"
             style="fill:none;stroke:#ff9301;stroke-width:4;stroke-linecap:butt;stroke-linejoin:miter;stroke-miterlimit:4;stroke-dasharray:none;stroke-opacity:1"
             id="path4603" /></g><g
           id="g4605"
           transform="matrix(1,0,0,-1,1635.365,775.7639)"><path
             d="m 85.35534,14.64466 c 19.52626,19.52622 19.52626,51.18446 0,70.71068 -19.52622,19.52626 -51.18446,19.52626 -70.71068,0 -19.526214,-19.52622 -19.526214,-51.18446 0,-70.71068 19.52622,-19.526214 51.18446,-19.526214 70.71068,0 z"
             style="fill:none;stroke:#ff9301;stroke-width:4;stroke-linecap:butt;stroke-linejoin:miter;stroke-miterlimit:4;stroke-dasharray:none;stroke-opacity:1"
             id="path4607" /></g><g
           id="g4609"
           transform="matrix(1,0,0,-1,1260.365,510.8388)"><path
             d="m 85.35534,14.64466 c 19.52626,19.52622 19.52626,51.18446 0,70.71068 -19.52622,19.52626 -51.18446,19.52626 -70.71068,0 -19.526214,-19.52622 -19.526214,-51.18446 0,-70.71068 19.52622,-19.526214 51.18446,-19.526214 70.71068,0 z"
             style="fill:none;stroke:#ff9301;stroke-width:4;stroke-linecap:butt;stroke-linejoin:miter;stroke-miterlimit:4;stroke-dasharray:none;stroke-opacity:1"
             id="path4611" /></g><g
           id="g4613"
           transform="matrix(1,0,0,-1,1410.365,510.8388)"><path
             d="m 85.35534,14.64466 c 19.52626,19.52622 19.52626,51.18446 0,70.71068 -19.52622,19.52626 -51.18446,19.52626 -70.71068,0 -19.526214,-19.52622 -19.526214,-51.18446 0,-70.71068 19.52622,-19.526214 51.18446,-19.526214 70.71068,0 z"
             style="fill:none;stroke:#ff9301;stroke-width:4;stroke-linecap:butt;stroke-linejoin:miter;stroke-miterlimit:4;stroke-dasharray:none;stroke-opacity:1"
             id="path4615" /></g><g
           id="g4617"
           transform="matrix(1,0,0,-1,1560.365,510.8388)"><path
             d="m 85.35534,14.64466 c 19.52626,19.52622 19.52626,51.18446 0,70.71068 -19.52622,19.52626 -51.18446,19.52626 -70.71068,0 -19.526214,-19.52622 -19.526214,-51.18446 0,-70.71068 19.52622,-19.526214 51.18446,-19.526214 70.71068,0 z"
             style="fill:none;stroke:#ff9301;stroke-width:4;stroke-linecap:butt;stroke-linejoin:miter;stroke-miterlimit:4;stroke-dasharray:none;stroke-opacity:1"
             id="path4619" /></g><g
           id="g4621"
           transform="matrix(1,0,0,-1,1335.365,245.9136)"><path
             d="m 85.35534,14.64466 c 19.52626,19.52622 19.52626,51.18446 0,70.71068 -19.52622,19.52626 -51.18446,19.52626 -70.71068,0 -19.526214,-19.52622 -19.526214,-51.18446 0,-70.71068 19.52622,-19.526214 51.18446,-19.526214 70.71068,0 z"
             style="fill:none;stroke:#ff9301;stroke-width:4;stroke-linecap:butt;stroke-linejoin:miter;stroke-miterlimit:4;stroke-dasharray:none;stroke-opacity:1"
             id="path4623" /></g><g
           id="g4625"
           transform="matrix(1,0,0,-1,1485.365,245.9136)"><path
             d="m 85.35534,14.64466 c 19.52626,19.52622 19.52626,51.18446 0,70.71068 -19.52622,19.52626 -51.18446,19.52626 -70.71068,0 -19.526214,-19.52622 -19.526214,-51.18446 0,-70.71068 19.52622,-19.526214 51.18446,-19.526214 70.71068,0 z"
             style="fill:none;stroke:#ff9301;stroke-width:4;stroke-linecap:butt;stroke-linejoin:miter;stroke-miterlimit:4;stroke-dasharray:none;stroke-opacity:1"
             id="path4627" /></g><g
           id="g4629"
           transform="matrix(1,0,0,-1,1624.532,940.6441)"><path
             d="M 0,0 46.66465,164.8352"
             style="fill:none;stroke:#ffffff;stroke-width:2;stroke-linecap:butt;stroke-linejoin:miter;stroke-miterlimit:4;stroke-dasharray:none;stroke-opacity:1"
             id="path4631" /></g><g
           id="g4633"
           transform="matrix(1,0,0,-1,1698.68,940.4118)"><path
             d="M 0,164.3707 43.53221,0"
             style="fill:none;stroke:#ffffff;stroke-width:2;stroke-linecap:butt;stroke-linejoin:miter;stroke-miterlimit:4;stroke-dasharray:none;stroke-opacity:1"
             id="path4635" /></g><g
           id="g4637"
           transform="matrix(1,0,0,-1,1427.668,960.4125)"><path
             d="M 0,204.372 285.5562,0"
             style="fill:none;stroke:#ffffff;stroke-width:2;stroke-linecap:butt;stroke-linejoin:miter;stroke-miterlimit:4;stroke-dasharray:none;stroke-opacity:1"
             id="path4639" /></g><g
           id="g4641"
           transform="matrix(1,0,0,-1,1277.853,960.6723)"><path
             d="M 290.023,0 0,204.8917"
             style="fill:none;stroke:#ffffff;stroke-width:2;stroke-linecap:butt;stroke-linejoin:miter;stroke-miterlimit:4;stroke-dasharray:none;stroke-opacity:1"
             id="path4643" /></g><g
           id="g4645"
           transform="matrix(1,0,0,-1,1399.532,940.6441)"><path
             d="M 46.66465,0 0,164.8352"
             style="fill:none;stroke:#ffffff;stroke-width:2;stroke-linecap:butt;stroke-linejoin:miter;stroke-miterlimit:4;stroke-dasharray:none;stroke-opacity:1"
             id="path4647" /></g><g
           id="g4649"
           transform="matrix(1,0,0,-1,1249.532,940.6441)"><path
             d="M 46.66465,0 0,164.8352"
             style="fill:none;stroke:#ffffff;stroke-width:2;stroke-linecap:butt;stroke-linejoin:miter;stroke-miterlimit:4;stroke-dasharray:none;stroke-opacity:1"
             id="path4651" /></g><g
           id="g4653"
           transform="matrix(1,0,0,-1,1202.853,960.6723)"><path
             d="M 290.023,204.8917 0,0"
             style="fill:none;stroke:#ffffff;stroke-width:2;stroke-linecap:butt;stroke-linejoin:miter;stroke-miterlimit:4;stroke-dasharray:none;stroke-opacity:1"
             id="path4655" /></g><g
           id="g4657"
           transform="matrix(1,0,0,-1,1206.809,967.2525)"><path
             d="M 432.1119,218.052 0,0"
             style="fill:none;stroke:#ffffff;stroke-width:2;stroke-linecap:butt;stroke-linejoin:miter;stroke-miterlimit:4;stroke-dasharray:none;stroke-opacity:1"
             id="path4659" /></g><g
           id="g4661"
           transform="matrix(1,0,0,-1,1249.532,675.7189)"><path
             d="M 0,0 46.66465,164.8352"
             style="fill:none;stroke:#ffffff;stroke-width:2;stroke-linecap:butt;stroke-linejoin:miter;stroke-miterlimit:4;stroke-dasharray:none;stroke-opacity:1"
             id="path4663" /></g><g
           id="g4665"
           transform="matrix(1,0,0,-1,1277.853,695.7472)"><path
             d="M 0,0 290.023,204.8917"
             style="fill:none;stroke:#ffffff;stroke-width:2;stroke-linecap:butt;stroke-linejoin:miter;stroke-miterlimit:4;stroke-dasharray:none;stroke-opacity:1"
             id="path4667" /></g><g
           id="g4669"
           transform="matrix(1,0,0,-1,1324.532,675.7189)"><path
             d="M 46.66464,0 0,164.8351"
             style="fill:none;stroke:#ffffff;stroke-width:2;stroke-linecap:butt;stroke-linejoin:miter;stroke-miterlimit:4;stroke-dasharray:none;stroke-opacity:1"
             id="path4671" /></g><g
           id="g4673"
           transform="matrix(1,0,0,-1,1474.532,675.7189)"><path
             d="M 46.66464,0 0,164.8351"
             style="fill:none;stroke:#ffffff;stroke-width:2;stroke-linecap:butt;stroke-linejoin:miter;stroke-miterlimit:4;stroke-dasharray:none;stroke-opacity:1"
             id="path4675" /></g><g
           id="g4677"
           transform="matrix(1,0,0,-1,1549.532,675.7189)"><path
             d="M 0,0 46.66465,164.8352"
             style="fill:none;stroke:#ffffff;stroke-width:2;stroke-linecap:butt;stroke-linejoin:miter;stroke-miterlimit:4;stroke-dasharray:none;stroke-opacity:1"
             id="path4679" /></g><g
           id="g4681"
           transform="matrix(1,0,0,-1,1494.038,686.1152)"><path
             d="M 157.653,0 0,185.6277"
             style="fill:none;stroke:#ffffff;stroke-width:2;stroke-linecap:butt;stroke-linejoin:miter;stroke-miterlimit:4;stroke-dasharray:none;stroke-opacity:1"
             id="path4683" /></g><g
           id="g4685"
           transform="matrix(1,0,0,-1,1324.532,410.7938)"><path
             d="M 46.66465,164.8352 0,0"
             style="fill:none;stroke:#ffffff;stroke-width:2;stroke-linecap:butt;stroke-linejoin:miter;stroke-miterlimit:4;stroke-dasharray:none;stroke-opacity:1"
             id="path4687" /></g><g
           id="g4689"
           transform="matrix(1,0,0,-1,1399.532,410.7938)"><path
             d="M 0,164.8352 46.66465,0"
             style="fill:none;stroke:#ffffff;stroke-width:2;stroke-linecap:butt;stroke-linejoin:miter;stroke-miterlimit:4;stroke-dasharray:none;stroke-opacity:1"
             id="path4691" /></g><g
           id="g4693"
           transform="matrix(1,0,0,-1,1549.532,410.7938)"><path
             d="M 0,164.8352 46.66465,0"
             style="fill:none;stroke:#ffffff;stroke-width:2;stroke-linecap:butt;stroke-linejoin:miter;stroke-miterlimit:4;stroke-dasharray:none;stroke-opacity:1"
             id="path4695" /></g><g
           id="g4697"
           transform="matrix(1,0,0,-1,863.3878,593.3013)"><path
             d="m 0,0 h 169.2244 3"
             style="fill:none;stroke:#ffffff;stroke-width:6;stroke-linecap:butt;stroke-linejoin:miter;stroke-miterlimit:4;stroke-dasharray:12, 12;stroke-dashoffset:0;stroke-opacity:1"
             id="path4699" /></g><path
           d="m 1032.612,581.3013 24,12 -24,12 z"
           style="fill:#ffffff;fill-opacity:1;fill-rule:nonzero;stroke:none"
           id="path4701" /><g
           id="g4703"
           transform="translate(872.82,625.5821)"><text
             transform="scale(1,-1)"
             style="font-variant:normal;font-weight:normal;font-size:48px;font-family:'Helvetica Neue';-inkscape-font-specification:HelveticaNeue;writing-mode:lr-tb;fill:#ffffff;fill-opacity:1;fill-rule:nonzero;stroke:none"
             id="text4707"><tspan
               x="0 31.104 47.088001 73.776001 100.464 111.12 137.808"
               y="0"
               sodipodi:role="line"
               id="tspan4705">Pruning</tspan></text></g></g></g></g></svg>
