<?xml version="1.0" encoding="UTF-8" standalone="no"?>
<!-- Created with Inkscape (http://www.inkscape.org/) -->

<svg
   version="1.1"
   id="svg25"
   xml:space="preserve"
   width="2560"
   height="1440"
   viewBox="0 0 2560 1440"
   sodipodi:docname="KD.svg"
   inkscape:version="1.1.1 (c3084ef, 2021-09-22)"
   xmlns:inkscape="http://www.inkscape.org/namespaces/inkscape"
   xmlns:sodipodi="http://sodipodi.sourceforge.net/DTD/sodipodi-0.dtd"
   xmlns="http://www.w3.org/2000/svg"
   xmlns:svg="http://www.w3.org/2000/svg"><defs
     id="defs29"><clipPath
       clipPathUnits="userSpaceOnUse"
       id="clipPath41"><path
         d="M 0,0 H 1920 V 1080 H 0 Z"
         id="path39" /></clipPath><clipPath
       clipPathUnits="userSpaceOnUse"
       id="clipPath51"><path
         d="m 122.2144,120.7997 h 4 v 512.3392 h -4 z"
         id="path49" /></clipPath><clipPath
       clipPathUnits="userSpaceOnUse"
       id="clipPath63"><path
         d="m 975.0744,891.5086 h 380.9986 v 11.59998 H 975.0744 Z"
         id="path61" /></clipPath><clipPath
       clipPathUnits="userSpaceOnUse"
       id="clipPath77"><path
         d="m 975.0741,513.6066 h 77.9398 v 4.17938 h -77.9398 z"
         id="path75" /></clipPath><clipPath
       clipPathUnits="userSpaceOnUse"
       id="clipPath89"><path
         d="m 539.0985,775.0178 h 440.1429 v 243.0079 H 539.0985 Z"
         id="path87" /></clipPath><clipPath
       clipPathUnits="userSpaceOnUse"
       id="clipPath101"><path
         d="m 538.5625,778.0178 h 441.2283 v 237.0079 H 538.5625 Z"
         id="path99" /></clipPath><clipPath
       clipPathUnits="userSpaceOnUse"
       id="clipPath115"><path
         d="M 539.0985,393.9658 H 979.2414 V 636.9737 H 539.0985 Z"
         id="path113" /></clipPath><clipPath
       clipPathUnits="userSpaceOnUse"
       id="clipPath127"><path
         d="M 538.5625,396.9658 H 979.7908 V 633.9737 H 538.5625 Z"
         id="path125" /></clipPath><clipPath
       clipPathUnits="userSpaceOnUse"
       id="clipPath141"><path
         d="m 1048.897,415.0243 h 4 v 201.3442 h -4 z"
         id="path139" /></clipPath><clipPath
       clipPathUnits="userSpaceOnUse"
       id="clipPath153"><path
         d="m 1394.419,884.3336 h 136.3371 v 4 H 1394.419 Z"
         id="path151" /></clipPath><clipPath
       clipPathUnits="userSpaceOnUse"
       id="clipPath165"><path
         d="m 1399.811,883.5858 h 23.5837 v 14.77221 h -23.5837 z"
         id="path163" /></clipPath><clipPath
       clipPathUnits="userSpaceOnUse"
       id="clipPath179"><path
         d="m 1425.303,884.3336 h 23.5837 v 67.78897 h -23.5837 z"
         id="path177" /></clipPath><clipPath
       clipPathUnits="userSpaceOnUse"
       id="clipPath193"><path
         d="m 1450.795,883.5858 h 23.5837 v 14.77221 h -23.5837 z"
         id="path191" /></clipPath><clipPath
       clipPathUnits="userSpaceOnUse"
       id="clipPath207"><path
         d="m 1476.288,883.5858 h 23.5837 v 24.86664 h -23.5837 z"
         id="path205" /></clipPath><clipPath
       clipPathUnits="userSpaceOnUse"
       id="clipPath221"><path
         d="m 1501.78,883.5858 h 23.5837 v 14.77221 H 1501.78 Z"
         id="path219" /></clipPath><clipPath
       clipPathUnits="userSpaceOnUse"
       id="clipPath235"><path
         d="m 1398.123,355.0957 h 136.3371 v 4 H 1398.123 Z"
         id="path233" /></clipPath><clipPath
       clipPathUnits="userSpaceOnUse"
       id="clipPath247"><path
         d="m 1403.515,354.3479 h 23.5837 v 9.68329 h -23.5837 z"
         id="path245" /></clipPath><clipPath
       clipPathUnits="userSpaceOnUse"
       id="clipPath261"><path
         d="m 1429.007,355.0958 h 23.5837 v 99.04759 h -23.5837 z"
         id="path259" /></clipPath><clipPath
       clipPathUnits="userSpaceOnUse"
       id="clipPath275"><path
         d="m 1454.5,354.348 h 23.5837 v 7.95986 H 1454.5 Z"
         id="path273" /></clipPath><clipPath
       clipPathUnits="userSpaceOnUse"
       id="clipPath289"><path
         d="m 1479.992,354.348 h 23.5837 v 7.95984 h -23.5837 z"
         id="path287" /></clipPath><clipPath
       clipPathUnits="userSpaceOnUse"
       id="clipPath303"><path
         d="m 1505.484,354.3479 h 23.5837 v 13.49946 h -23.5837 z"
         id="path301" /></clipPath><clipPath
       clipPathUnits="userSpaceOnUse"
       id="clipPath317"><path
         d="m 1399.589,610.4358 h 136.3371 v 4 H 1399.589 Z"
         id="path315" /></clipPath><clipPath
       clipPathUnits="userSpaceOnUse"
       id="clipPath329"><path
         d="m 1404.981,609.688 h 23.5837 v 24.86665 h -23.5837 z"
         id="path327" /></clipPath><clipPath
       clipPathUnits="userSpaceOnUse"
       id="clipPath343"><path
         d="m 1430.473,610.4358 h 23.5837 v 59.16298 h -23.5837 z"
         id="path341" /></clipPath><clipPath
       clipPathUnits="userSpaceOnUse"
       id="clipPath357"><path
         d="m 1455.965,609.688 h 23.5837 v 14.77221 h -23.5837 z"
         id="path355" /></clipPath><clipPath
       clipPathUnits="userSpaceOnUse"
       id="clipPath371"><path
         d="m 1481.458,609.688 h 23.5837 v 14.7722 h -23.5837 z"
         id="path369" /></clipPath><clipPath
       clipPathUnits="userSpaceOnUse"
       id="clipPath385"><path
         d="m 1506.95,609.688 h 23.5837 v 24.86665 H 1506.95 Z"
         id="path383" /></clipPath><clipPath
       clipPathUnits="userSpaceOnUse"
       id="clipPath399"><path
         d="m 1340.041,960.8198 h 245.0934 v 63.2546 H 1340.041 Z"
         id="path397" /></clipPath><clipPath
       clipPathUnits="userSpaceOnUse"
       id="clipPath413"><path
         d="m 1339.858,550.6482 h 245.0934 v 63.25463 H 1339.858 Z"
         id="path411" /></clipPath><clipPath
       clipPathUnits="userSpaceOnUse"
       id="clipPath427"><path
         d="m 1339.858,452.2067 h 272.7569 v 63.25463 H 1339.858 Z"
         id="path425" /></clipPath><clipPath
       clipPathUnits="userSpaceOnUse"
       id="clipPath441"><path
         d="m 1402.397,96.73606 h 123.3111 v 4 H 1402.397 Z"
         id="path439" /></clipPath><clipPath
       clipPathUnits="userSpaceOnUse"
       id="clipPath453"><path
         d="m 1407.17,95.87226 h 21.6847 v 5.72758 H 1407.17 Z"
         id="path451" /></clipPath><clipPath
       clipPathUnits="userSpaceOnUse"
       id="clipPath467"><path
         d="m 1430.19,96.73606 h 21.6847 v 108.439 H 1430.19 Z"
         id="path465" /></clipPath><clipPath
       clipPathUnits="userSpaceOnUse"
       id="clipPath481"><path
         d="m 1453.21,95.87226 h 21.6847 v 5.72758 H 1453.21 Z"
         id="path479" /></clipPath><clipPath
       clipPathUnits="userSpaceOnUse"
       id="clipPath495"><path
         d="m 1476.231,95.87227 h 21.6847 v 5.72757 h -21.6847 z"
         id="path493" /></clipPath><clipPath
       clipPathUnits="userSpaceOnUse"
       id="clipPath509"><path
         d="m 1499.251,95.87226 h 21.6847 v 5.72758 h -21.6847 z"
         id="path507" /></clipPath><clipPath
       clipPathUnits="userSpaceOnUse"
       id="clipPath523"><path
         d="m 1327.674,19.04175 h 272.7569 V 82.29638 H 1327.674 Z"
         id="path521" /></clipPath><clipPath
       clipPathUnits="userSpaceOnUse"
       id="clipPath537"><path
         d="m 53.63943,628.7728 h 141.1499 V 813.5093 H 53.63943 Z"
         id="path535" /></clipPath><clipPath
       clipPathUnits="userSpaceOnUse"
       id="clipPath551"><path
         d="m 52.10342,631.2728 h 144.2283 V 811.0093 H 52.10342 Z"
         id="path549" /></clipPath><clipPath
       clipPathUnits="userSpaceOnUse"
       id="clipPath565"><path
         d="m 192.788,717.6494 h 126.7971 v 4.95757 H 192.788 Z"
         id="path563" /></clipPath><clipPath
       clipPathUnits="userSpaceOnUse"
       id="clipPath577"><path
         d="m 316.99,515.0447 h 4 v 383.3678 h -4 z"
         id="path575" /></clipPath><clipPath
       clipPathUnits="userSpaceOnUse"
       id="clipPath589"><path
         d="m 319.0379,890.4119 h 227.0822 v 11.59999 H 319.0379 Z"
         id="path587" /></clipPath><clipPath
       clipPathUnits="userSpaceOnUse"
       id="clipPath603"><path
         d="m 318.9974,509.9108 h 227.1659 v 11.59995 H 318.9974 Z"
         id="path601" /></clipPath><clipPath
       clipPathUnits="userSpaceOnUse"
       id="clipPath617"><path
         d="m 187.5695,729.3163 h 130.786 v 63.25463 h -130.786 z"
         id="path615" /></clipPath><clipPath
       clipPathUnits="userSpaceOnUse"
       id="clipPath631"><path
         d="m 1048.355,408.7073 h 307.4027 v 11.6 H 1048.355 Z"
         id="path629" /></clipPath><clipPath
       clipPathUnits="userSpaceOnUse"
       id="clipPath645"><path
         d="m 1048.355,610.9579 h 307.4027 v 11.6 H 1048.355 Z"
         id="path643" /></clipPath><clipPath
       clipPathUnits="userSpaceOnUse"
       id="clipPath659"><path
         d="m 122.6288,117.6123 h 1233.445 v 11.78275 H 122.6288 Z"
         id="path657" /></clipPath><clipPath
       clipPathUnits="userSpaceOnUse"
       id="clipPath673"><path
         d="m 1494.92,744.0622 h 425.0799 v 64.67594 H 1494.92 Z"
         id="path671" /></clipPath><clipPath
       clipPathUnits="userSpaceOnUse"
       id="clipPath687"><path
         d="m 1494.92,259.881 h 425.0799 v 64.67594 H 1494.92 Z"
         id="path685" /></clipPath><clipPath
       clipPathUnits="userSpaceOnUse"
       id="clipPath713"><path
         d="m 1453.187,213.6507 h 18.8 v 132.2216 h -18.8 z"
         id="path711" /></clipPath><clipPath
       clipPathUnits="userSpaceOnUse"
       id="clipPath729"><path
         d="m 1453.187,711.6371 h 18.8 v 132.2217 h -18.8 z"
         id="path727" /></clipPath></defs><sodipodi:namedview
     id="namedview27"
     pagecolor="#ffffff"
     bordercolor="#666666"
     borderopacity="1.0"
     inkscape:pageshadow="2"
     inkscape:pageopacity="0.0"
     inkscape:pagecheckerboard="0"
     showgrid="false"
     inkscape:zoom="0.43125"
     inkscape:cx="1280"
     inkscape:cy="720"
     inkscape:window-width="1323"
     inkscape:window-height="847"
     inkscape:window-x="0"
     inkscape:window-y="25"
     inkscape:window-maximized="0"
     inkscape:current-layer="g31" /><g
     id="g31"
     inkscape:groupmode="layer"
     inkscape:label="KD"
     transform="matrix(1.3333333,0,0,-1.3333333,0,1440)"><g
       id="g33" /><g
       id="g35"><g
         id="g37"
         clip-path="url(#clipPath41)"><path
           d="M 0,0 H 1920 V 1080 H 0 Z"
           style="fill:#232427;fill-opacity:1;fill-rule:nonzero;stroke:none"
           id="path43" /></g></g><g
       id="g45"><g
         id="g47"
         clip-path="url(#clipPath51)"><g
           id="g53"
           transform="matrix(0,1,1,0,124.2144,121.7997)"><path
             d="M 0,0 H 510.3393"
             style="fill:none;stroke:#ffffff;stroke-width:2;stroke-linecap:butt;stroke-linejoin:miter;stroke-miterlimit:4;stroke-dasharray:2, 2;stroke-dashoffset:0;stroke-opacity:1"
             id="path55" /></g></g></g><g
       id="g57"><g
         id="g59"
         clip-path="url(#clipPath63)"><g
           id="g65"
           transform="matrix(1,0,0,-1,976.0766,897.329)"><path
             d="m 0,0.8072275 369.3943,-0.78678031 1,-0.0021299"
             style="fill:none;stroke:#ffffff;stroke-width:2;stroke-linecap:butt;stroke-linejoin:miter;stroke-miterlimit:4;stroke-dasharray:none;stroke-opacity:1"
             id="path67" /></g><path
           d="m 1345.481,892.5086 9.59,4.8204 -9.61,4.7795 z"
           style="fill:#ffffff;fill-opacity:1;fill-rule:nonzero;stroke:none"
           id="path69" /></g></g><g
       id="g71"><g
         id="g73"
         clip-path="url(#clipPath77)"><g
           id="g79"
           transform="matrix(1,0,0,-1,976.0765,515.786)"><path
             d="M 0,0 75.93505,0.1793814"
             style="fill:none;stroke:#ffffff;stroke-width:2;stroke-linecap:butt;stroke-linejoin:miter;stroke-miterlimit:4;stroke-dasharray:none;stroke-opacity:1"
             id="path81" /></g></g></g><g
       id="g83"><g
         id="g85"
         clip-path="url(#clipPath89)"><g
           id="g91"
           transform="matrix(1,0,0,-1,542.0985,1015.026)"><path
             d="M 54.34585,0 H 379.797 c 15.9478,0 25.5164,0 31.8955,2.663189 9.1961,3.347079 16.4401,10.591141 19.7872,19.787161 2.6632,6.3791 2.6632,15.94775 2.6632,31.8955 V 182.662 c 0,15.9478 0,25.5164 -2.6632,31.8955 -3.3471,9.1961 -10.5911,16.4401 -19.7872,19.7872 -6.3791,2.6632 -15.9477,2.6632 -31.8955,2.6632 H 54.34585 c -15.94775,0 -25.5164,0 -31.8955,-2.6632 C 13.25433,230.9976 6.010268,223.7536 2.663189,214.5575 0,208.1784 0,198.6098 0,182.662 V 54.34585 C 0,38.3981 0,28.82945 2.663189,22.45035 6.010268,13.25433 13.25433,6.010268 22.45035,2.663189 28.82945,0 38.3981,0 54.34585,0 Z"
             style="fill:none;stroke:#ff9301;stroke-width:4;stroke-linecap:butt;stroke-linejoin:miter;stroke-miterlimit:4;stroke-dasharray:none;stroke-opacity:1"
             id="path93" /></g></g></g><g
       id="g95"><g
         id="g97"
         clip-path="url(#clipPath101)"><g
           id="g103"
           transform="translate(701.0646,884.8431)"><text
             transform="scale(1,-1)"
             style="font-variant:normal;font-weight:500;font-size:32px;font-family:'Helvetica Neue';-inkscape-font-specification:HelveticaNeue-Medium;writing-mode:lr-tb;fill:#ff9301;fill-opacity:1;fill-rule:nonzero;stroke:none"
             id="text107"><tspan
               x="0 15.424 33.216 51.007999 68.800003 87.167999 104.96"
               y="0"
               sodipodi:role="line"
               id="tspan105">Teacher</tspan></text></g></g></g><g
       id="g109"><g
         id="g111"
         clip-path="url(#clipPath115)"><g
           id="g117"
           transform="matrix(1,0,0,-1,542.0985,633.9737)"><path
             d="M 54.34585,0 H 379.797 c 15.9478,0 25.5164,0 31.8955,2.663189 9.1961,3.347079 16.4401,10.591141 19.7872,19.787161 2.6632,6.3791 2.6632,15.94775 2.6632,31.8955 V 182.662 c 0,15.9478 0,25.5164 -2.6632,31.8955 -3.3471,9.1961 -10.5911,16.4401 -19.7872,19.7872 -6.3791,2.6632 -15.9477,2.6632 -31.8955,2.6632 H 54.34585 c -15.94775,0 -25.5164,0 -31.8955,-2.6632 C 13.25433,230.9976 6.010268,223.7536 2.663189,214.5575 0,208.1784 0,198.6098 0,182.662 V 54.34585 C 0,38.3981 0,28.82945 2.663189,22.45035 6.010268,13.25433 13.25433,6.010268 22.45035,2.663189 28.82945,0 38.3981,0 54.34585,0 Z"
             style="fill:none;stroke:#ff9301;stroke-width:4;stroke-linecap:butt;stroke-linejoin:miter;stroke-miterlimit:4;stroke-dasharray:none;stroke-opacity:1"
             id="path119" /></g></g></g><g
       id="g121"><g
         id="g123"
         clip-path="url(#clipPath127)"><g
           id="g129"
           transform="translate(701.1126,503.7911)"><text
             transform="scale(1,-1)"
             style="font-variant:normal;font-weight:500;font-size:32px;font-family:'Helvetica Neue';-inkscape-font-specification:HelveticaNeue-Medium;writing-mode:lr-tb;fill:#ff9301;fill-opacity:1;fill-rule:nonzero;stroke:none"
             id="text133"><tspan
               x="0 20.736 31.392 49.759998 69.311996 87.103996 105.472"
               y="0"
               sodipodi:role="line"
               id="tspan131">Student</tspan></text></g></g></g><g
       id="g135"><g
         id="g137"
         clip-path="url(#clipPath141)"><g
           id="g143"
           transform="matrix(0,1,1,0,1050.897,416.0243)"><path
             d="M 0,0 H 199.3443"
             style="fill:none;stroke:#ffffff;stroke-width:2;stroke-linecap:butt;stroke-linejoin:miter;stroke-miterlimit:4;stroke-dasharray:none;stroke-opacity:1"
             id="path145" /></g></g></g><g
       id="g147"><g
         id="g149"
         clip-path="url(#clipPath153)"><g
           id="g155"
           transform="matrix(1,0,0,-1,1395.419,886.3336)"><path
             d="M 0,0 H 134.3371"
             style="fill:none;stroke:#ffffff;stroke-width:2;stroke-linecap:butt;stroke-linejoin:miter;stroke-miterlimit:4;stroke-dasharray:none;stroke-opacity:1"
             id="path157" /></g></g></g><g
       id="g159"><g
         id="g161"
         clip-path="url(#clipPath165)"><path
           d="m 1401.811,885.5858 h 19.5837 v 10.77221 h -19.5837 z"
           style="fill:#935d26;fill-opacity:1;fill-rule:nonzero;stroke:none"
           id="path167" /><g
           id="g169"
           transform="matrix(1,0,0,-1,1401.811,896.358)"><path
             d="M 0,0 H 19.58365 V 10.77221 H 0 Z"
             style="fill:none;stroke:#fe9301;stroke-width:2;stroke-linecap:butt;stroke-linejoin:miter;stroke-miterlimit:4;stroke-dasharray:none;stroke-opacity:1"
             id="path171" /></g></g></g><g
       id="g173"><g
         id="g175"
         clip-path="url(#clipPath179)"><path
           d="m 1427.303,886.3336 h 19.5837 v 63.78897 h -19.5837 z"
           style="fill:#935d26;fill-opacity:1;fill-rule:nonzero;stroke:none"
           id="path181" /><g
           id="g183"
           transform="matrix(1,0,0,-1,1427.303,950.1226)"><path
             d="M 0,0 H 19.58365 V 63.78897 H 0 Z"
             style="fill:none;stroke:#fe9301;stroke-width:2;stroke-linecap:butt;stroke-linejoin:miter;stroke-miterlimit:4;stroke-dasharray:none;stroke-opacity:1"
             id="path185" /></g></g></g><g
       id="g187"><g
         id="g189"
         clip-path="url(#clipPath193)"><path
           d="m 1452.795,885.5858 h 19.5837 v 10.77221 h -19.5837 z"
           style="fill:#935d26;fill-opacity:1;fill-rule:nonzero;stroke:none"
           id="path195" /><g
           id="g197"
           transform="matrix(1,0,0,-1,1452.795,896.358)"><path
             d="M 0,0 H 19.58365 V 10.77221 H 0 Z"
             style="fill:none;stroke:#fe9301;stroke-width:2;stroke-linecap:butt;stroke-linejoin:miter;stroke-miterlimit:4;stroke-dasharray:none;stroke-opacity:1"
             id="path199" /></g></g></g><g
       id="g201"><g
         id="g203"
         clip-path="url(#clipPath207)"><path
           d="m 1478.288,885.5858 h 19.5837 v 20.86664 h -19.5837 z"
           style="fill:#935d26;fill-opacity:1;fill-rule:nonzero;stroke:none"
           id="path209" /><g
           id="g211"
           transform="matrix(1,0,0,-1,1478.288,906.4524)"><path
             d="M 0,0 H 19.58365 V 20.86664 H 0 Z"
             style="fill:none;stroke:#fe9301;stroke-width:2;stroke-linecap:butt;stroke-linejoin:miter;stroke-miterlimit:4;stroke-dasharray:none;stroke-opacity:1"
             id="path213" /></g></g></g><g
       id="g215"><g
         id="g217"
         clip-path="url(#clipPath221)"><path
           d="m 1503.78,885.5858 h 19.5837 v 10.77221 H 1503.78 Z"
           style="fill:#935d26;fill-opacity:1;fill-rule:nonzero;stroke:none"
           id="path223" /><g
           id="g225"
           transform="matrix(1,0,0,-1,1503.78,896.358)"><path
             d="M 0,0 H 19.58365 V 10.77221 H 0 Z"
             style="fill:none;stroke:#fe9301;stroke-width:2;stroke-linecap:butt;stroke-linejoin:miter;stroke-miterlimit:4;stroke-dasharray:none;stroke-opacity:1"
             id="path227" /></g></g></g><g
       id="g229"><g
         id="g231"
         clip-path="url(#clipPath235)"><g
           id="g237"
           transform="matrix(1,0,0,-1,1399.123,357.0957)"><path
             d="M 0,0 H 134.3371"
             style="fill:none;stroke:#ffffff;stroke-width:2;stroke-linecap:butt;stroke-linejoin:miter;stroke-miterlimit:4;stroke-dasharray:none;stroke-opacity:1"
             id="path239" /></g></g></g><g
       id="g241"><g
         id="g243"
         clip-path="url(#clipPath247)"><path
           d="m 1405.515,356.3479 h 19.5837 v 5.68329 h -19.5837 z"
           style="fill:#935d26;fill-opacity:1;fill-rule:nonzero;stroke:none"
           id="path249" /><g
           id="g251"
           transform="matrix(1,0,0,-1,1405.515,362.0312)"><path
             d="M 0,0 H 19.58365 V 5.683286 H 0 Z"
             style="fill:none;stroke:#fe9301;stroke-width:2;stroke-linecap:butt;stroke-linejoin:miter;stroke-miterlimit:4;stroke-dasharray:none;stroke-opacity:1"
             id="path253" /></g></g></g><g
       id="g255"><g
         id="g257"
         clip-path="url(#clipPath261)"><path
           d="m 1431.007,357.0958 h 19.5837 v 95.04759 h -19.5837 z"
           style="fill:#935d26;fill-opacity:1;fill-rule:nonzero;stroke:none"
           id="path263" /><g
           id="g265"
           transform="matrix(1,0,0,-1,1431.007,452.1433)"><path
             d="M 0,0 H 19.58365 V 95.04759 H 0 Z"
             style="fill:none;stroke:#fe9301;stroke-width:2;stroke-linecap:butt;stroke-linejoin:miter;stroke-miterlimit:4;stroke-dasharray:none;stroke-opacity:1"
             id="path267" /></g></g></g><g
       id="g269"><g
         id="g271"
         clip-path="url(#clipPath275)"><path
           d="m 1456.5,356.348 h 19.5837 v 3.95986 H 1456.5 Z"
           style="fill:#935d26;fill-opacity:1;fill-rule:nonzero;stroke:none"
           id="path277" /><g
           id="g279"
           transform="matrix(1,0,0,-1,1456.5,360.3078)"><path
             d="M 0,0 H 19.58365 V 3.959859 H 0 Z"
             style="fill:none;stroke:#fe9301;stroke-width:2;stroke-linecap:butt;stroke-linejoin:miter;stroke-miterlimit:4;stroke-dasharray:none;stroke-opacity:1"
             id="path281" /></g></g></g><g
       id="g283"><g
         id="g285"
         clip-path="url(#clipPath289)"><path
           d="m 1481.992,356.348 h 19.5837 v 3.95984 h -19.5837 z"
           style="fill:#935d26;fill-opacity:1;fill-rule:nonzero;stroke:none"
           id="path291" /><g
           id="g293"
           transform="matrix(1,0,0,-1,1481.992,360.3078)"><path
             d="M 0,0 H 19.58365 V 3.959839 H 0 Z"
             style="fill:none;stroke:#fe9301;stroke-width:2;stroke-linecap:butt;stroke-linejoin:miter;stroke-miterlimit:4;stroke-dasharray:none;stroke-opacity:1"
             id="path295" /></g></g></g><g
       id="g297"><g
         id="g299"
         clip-path="url(#clipPath303)"><path
           d="m 1507.484,356.3479 h 19.5837 v 9.49946 h -19.5837 z"
           style="fill:#935d26;fill-opacity:1;fill-rule:nonzero;stroke:none"
           id="path305" /><g
           id="g307"
           transform="matrix(1,0,0,-1,1507.484,365.8474)"><path
             d="M 0,0 H 19.58365 V 9.499457 H 0 Z"
             style="fill:none;stroke:#fe9301;stroke-width:2;stroke-linecap:butt;stroke-linejoin:miter;stroke-miterlimit:4;stroke-dasharray:none;stroke-opacity:1"
             id="path309" /></g></g></g><g
       id="g311"><g
         id="g313"
         clip-path="url(#clipPath317)"><g
           id="g319"
           transform="matrix(1,0,0,-1,1400.589,612.4358)"><path
             d="M 0,0 H 134.3371"
             style="fill:none;stroke:#ffffff;stroke-width:2;stroke-linecap:butt;stroke-linejoin:miter;stroke-miterlimit:4;stroke-dasharray:none;stroke-opacity:1"
             id="path321" /></g></g></g><g
       id="g323"><g
         id="g325"
         clip-path="url(#clipPath329)"><path
           d="m 1406.981,611.688 h 19.5837 v 20.86665 h -19.5837 z"
           style="fill:#935d26;fill-opacity:1;fill-rule:nonzero;stroke:none"
           id="path331" /><g
           id="g333"
           transform="matrix(1,0,0,-1,1406.981,632.5546)"><path
             d="M 0,0 H 19.58365 V 20.86665 H 0 Z"
             style="fill:none;stroke:#fe9301;stroke-width:2;stroke-linecap:butt;stroke-linejoin:miter;stroke-miterlimit:4;stroke-dasharray:none;stroke-opacity:1"
             id="path335" /></g></g></g><g
       id="g337"><g
         id="g339"
         clip-path="url(#clipPath343)"><path
           d="m 1432.473,612.4358 h 19.5837 v 55.16298 h -19.5837 z"
           style="fill:#935d26;fill-opacity:1;fill-rule:nonzero;stroke:none"
           id="path345" /><g
           id="g347"
           transform="matrix(1,0,0,-1,1432.473,667.5988)"><path
             d="M 0,0 H 19.58365 V 55.16298 H 0 Z"
             style="fill:none;stroke:#fe9301;stroke-width:2;stroke-linecap:butt;stroke-linejoin:miter;stroke-miterlimit:4;stroke-dasharray:none;stroke-opacity:1"
             id="path349" /></g></g></g><g
       id="g351"><g
         id="g353"
         clip-path="url(#clipPath357)"><path
           d="m 1457.965,611.688 h 19.5837 v 10.77221 h -19.5837 z"
           style="fill:#935d26;fill-opacity:1;fill-rule:nonzero;stroke:none"
           id="path359" /><g
           id="g361"
           transform="matrix(1,0,0,-1,1457.965,622.4602)"><path
             d="M 0,0 H 19.58365 V 10.77221 H 0 Z"
             style="fill:none;stroke:#fe9301;stroke-width:2;stroke-linecap:butt;stroke-linejoin:miter;stroke-miterlimit:4;stroke-dasharray:none;stroke-opacity:1"
             id="path363" /></g></g></g><g
       id="g365"><g
         id="g367"
         clip-path="url(#clipPath371)"><path
           d="m 1483.458,611.688 h 19.5837 v 10.7722 h -19.5837 z"
           style="fill:#935d26;fill-opacity:1;fill-rule:nonzero;stroke:none"
           id="path373" /><g
           id="g375"
           transform="matrix(1,0,0,-1,1483.458,622.4602)"><path
             d="M 0,0 H 19.58365 V 10.7722 H 0 Z"
             style="fill:none;stroke:#fe9301;stroke-width:2;stroke-linecap:butt;stroke-linejoin:miter;stroke-miterlimit:4;stroke-dasharray:none;stroke-opacity:1"
             id="path377" /></g></g></g><g
       id="g379"><g
         id="g381"
         clip-path="url(#clipPath385)"><path
           d="m 1508.95,611.688 h 19.5837 v 20.86665 H 1508.95 Z"
           style="fill:#935d26;fill-opacity:1;fill-rule:nonzero;stroke:none"
           id="path387" /><g
           id="g389"
           transform="matrix(1,0,0,-1,1508.95,632.5546)"><path
             d="M 0,0 H 19.58365 V 20.86665 H 0 Z"
             style="fill:none;stroke:#fe9301;stroke-width:2;stroke-linecap:butt;stroke-linejoin:miter;stroke-miterlimit:4;stroke-dasharray:none;stroke-opacity:1"
             id="path391" /></g></g></g><g
       id="g393"><g
         id="g395"
         clip-path="url(#clipPath399)"><g
           id="g401"
           transform="translate(1348.778,981.3044)"><text
             transform="scale(1,-1)"
             style="font-variant:normal;font-weight:normal;font-size:30px;font-family:'Helvetica Neue';-inkscape-font-specification:HelveticaNeue;writing-mode:lr-tb;fill:#ffffff;fill-opacity:1;fill-rule:nonzero;stroke:none"
             id="text405"><tspan
               x="0 19.440001 36.66 45.540001 54.990002 63.330002 80.010002 96.120003 113.91 130.02 136.67999"
               y="0"
               sodipodi:role="line"
               id="tspan403">Soft Labels</tspan></text></g></g></g><g
       id="g407"><g
         id="g409"
         clip-path="url(#clipPath413)"><g
           id="g415"
           transform="translate(1348.595,571.1328)"><text
             transform="scale(1,-1)"
             style="font-variant:normal;font-weight:normal;font-size:30px;font-family:'Helvetica Neue';-inkscape-font-specification:HelveticaNeue;writing-mode:lr-tb;fill:#ffffff;fill-opacity:1;fill-rule:nonzero;stroke:none"
             id="text419"><tspan
               x="0 19.440001 36.66 45.540001 54.990002 63.330002 80.010002 97.230003 114.45 121.11 130.56"
               y="0"
               sodipodi:role="line"
               id="tspan417">Soft Logits</tspan></text></g></g></g><g
       id="g421"><g
         id="g423"
         clip-path="url(#clipPath427)"><g
           id="g429"
           transform="translate(1348.595,472.6913)"><text
             transform="scale(1,-1)"
             style="font-variant:normal;font-weight:normal;font-size:30px;font-family:'Helvetica Neue';-inkscape-font-specification:HelveticaNeue;writing-mode:lr-tb;fill:#ffffff;fill-opacity:1;fill-rule:nonzero;stroke:none"
             id="text433"><tspan
               x="0 21.66 37.77 47.220001 65.010002 73.349998 90.029999 107.25 124.47 131.13 140.58"
               y="0"
               sodipodi:role="line"
               id="tspan431">Hard Logits</tspan></text></g></g></g><g
       id="g435"><g
         id="g437"
         clip-path="url(#clipPath441)"><g
           id="g443"
           transform="matrix(1,0,0,-1,1403.397,98.73606)"><path
             d="M 0,0 H 121.3111"
             style="fill:none;stroke:#ffffff;stroke-width:2;stroke-linecap:butt;stroke-linejoin:miter;stroke-miterlimit:4;stroke-dasharray:none;stroke-opacity:1"
             id="path445" /></g></g></g><g
       id="g447"><g
         id="g449"
         clip-path="url(#clipPath453)"><path
           d="m 1409.17,97.87226 h 17.6847 v 1.727584 H 1409.17 Z"
           style="fill:#935d26;fill-opacity:1;fill-rule:nonzero;stroke:none"
           id="path455" /><g
           id="g457"
           transform="matrix(1,0,0,-1,1409.17,99.59985)"><path
             d="M 0,0 H 17.68473 V 1.727584 H 0 Z"
             style="fill:none;stroke:#fe9301;stroke-width:2;stroke-linecap:butt;stroke-linejoin:miter;stroke-miterlimit:4;stroke-dasharray:none;stroke-opacity:1"
             id="path459" /></g></g></g><g
       id="g461"><g
         id="g463"
         clip-path="url(#clipPath467)"><path
           d="m 1432.19,98.73606 h 17.6847 v 104.439 H 1432.19 Z"
           style="fill:#935d26;fill-opacity:1;fill-rule:nonzero;stroke:none"
           id="path469" /><g
           id="g471"
           transform="matrix(1,0,0,-1,1432.19,203.175)"><path
             d="M 0,0 H 17.68473 V 104.439 H 0 Z"
             style="fill:none;stroke:#fe9301;stroke-width:2;stroke-linecap:butt;stroke-linejoin:miter;stroke-miterlimit:4;stroke-dasharray:none;stroke-opacity:1"
             id="path473" /></g></g></g><g
       id="g475"><g
         id="g477"
         clip-path="url(#clipPath481)"><path
           d="m 1455.21,97.87226 h 17.6847 v 1.727584 H 1455.21 Z"
           style="fill:#935d26;fill-opacity:1;fill-rule:nonzero;stroke:none"
           id="path483" /><g
           id="g485"
           transform="matrix(1,0,0,-1,1455.21,99.59985)"><path
             d="M 0,0 H 17.68473 V 1.727584 H 0 Z"
             style="fill:none;stroke:#fe9301;stroke-width:2;stroke-linecap:butt;stroke-linejoin:miter;stroke-miterlimit:4;stroke-dasharray:none;stroke-opacity:1"
             id="path487" /></g></g></g><g
       id="g489"><g
         id="g491"
         clip-path="url(#clipPath495)"><path
           d="m 1478.231,97.87227 h 17.6847 v 1.727573 h -17.6847 z"
           style="fill:#935d26;fill-opacity:1;fill-rule:nonzero;stroke:none"
           id="path497" /><g
           id="g499"
           transform="matrix(1,0,0,-1,1478.231,99.59985)"><path
             d="M 0,0 H 17.68473 V 1.727573 H 0 Z"
             style="fill:none;stroke:#fe9301;stroke-width:2;stroke-linecap:butt;stroke-linejoin:miter;stroke-miterlimit:4;stroke-dasharray:none;stroke-opacity:1"
             id="path501" /></g></g></g><g
       id="g503"><g
         id="g505"
         clip-path="url(#clipPath509)"><path
           d="m 1501.251,97.87226 h 17.6847 v 1.727584 h -17.6847 z"
           style="fill:#935d26;fill-opacity:1;fill-rule:nonzero;stroke:none"
           id="path511" /><g
           id="g513"
           transform="matrix(1,0,0,-1,1501.251,99.59985)"><path
             d="M 0,0 H 17.68473 V 1.727584 H 0 Z"
             style="fill:none;stroke:#fe9301;stroke-width:2;stroke-linecap:butt;stroke-linejoin:miter;stroke-miterlimit:4;stroke-dasharray:none;stroke-opacity:1"
             id="path515" /></g></g></g><g
       id="g517"><g
         id="g519"
         clip-path="url(#clipPath523)"><g
           id="g525"
           transform="translate(1336.412,39.52631)"><text
             transform="scale(1,-1)"
             style="font-variant:normal;font-weight:normal;font-size:30px;font-family:'Helvetica Neue';-inkscape-font-specification:HelveticaNeue;writing-mode:lr-tb;fill:#ffffff;fill-opacity:1;fill-rule:nonzero;stroke:none"
             id="text529"><tspan
               x="0 21.66 37.77 47.220001 65.010002 73.349998 90.029999 106.14 123.93 140.03999 146.7"
               y="0"
               sodipodi:role="line"
               id="tspan527">Hard Labels</tspan></text></g></g></g><g
       id="g531"><g
         id="g533"
         clip-path="url(#clipPath537)"><path
           d="m 124.2144,811.0093 c -17.4229,0 -34.84199,-2.0043 -48.13519,-6.0222 -26.58639,-8.0357 -26.58635,-21.0621 0,-29.0978 26.58639,-8.0357 69.68399,-8.0357 96.27029,0 26.5865,8.0357 26.5864,21.0621 0,29.0978 -13.2931,4.0179 -30.7123,6.0222 -48.1351,6.0222 z M 56.14132,781.1095 v -128.14 c 0,-11.3465 30.47669,-21.6967 68.07308,-21.6967 37.5964,0 68.073,10.3502 68.073,21.6967 v 128.14 c -9.6805,-8.5549 -36.5101,-14.6755 -68.073,-14.6755 -31.56296,0 -58.3926,6.1206 -68.07308,14.6755 z"
           style="fill:#ff9301;fill-opacity:0.069;fill-rule:nonzero;stroke:none"
           id="path539" /><g
           id="g541"
           transform="matrix(1,0,0,-1,56.13943,811.0093)"><path
             d="M 68.07495,0 C 50.65209,1.801023e-6 33.23297,2.004324 19.93978,6.022172 c -26.586392,8.035688 -26.586355,21.062088 0,29.097788 26.58637,8.03569 69.68395,8.0357 96.27032,0 26.5864,-8.03571 26.5864,-21.06208 0,-29.097788 C 102.9169,2.004327 85.49779,-8.104606e-6 68.07495,0 Z M 0.00188595,29.8998 v 128.14 c 0,11.3465 30.47669405,21.6967 68.07306405,21.6967 37.59635,0 68.07305,-10.3502 68.07305,-21.6967 v -128.14 c -9.6805,8.55487 -36.51013,14.67552 -68.07305,14.67553 -31.56294,0 -58.39258,-6.12065 -68.07306405,-14.67553 z"
             style="fill:none;stroke:#ff9301;stroke-width:3;stroke-linecap:butt;stroke-linejoin:miter;stroke-miterlimit:4;stroke-dasharray:none;stroke-opacity:1"
             id="path543" /></g></g></g><g
       id="g545"><g
         id="g547"
         clip-path="url(#clipPath551)"><g
           id="g553"
           transform="translate(89.54556,709.3501)"><text
             transform="scale(1,-1)"
             style="font-variant:normal;font-weight:500;font-size:32px;font-family:'Helvetica Neue';-inkscape-font-specification:HelveticaNeue-Medium;writing-mode:lr-tb;fill:#ff9301;fill-opacity:1;fill-rule:nonzero;stroke:none"
             id="text557"><tspan
               x="0 23.104 40.896 51.551998"
               y="0"
               sodipodi:role="line"
               id="tspan555">Data</tspan></text></g></g></g><g
       id="g559"><g
         id="g561"
         clip-path="url(#clipPath565)"><g
           id="g567"
           transform="matrix(1,0,0,-1,193.7957,720.607)"><path
             d="M 0,0 124.7817,0.9576332"
             style="fill:none;stroke:#ffffff;stroke-width:2;stroke-linecap:butt;stroke-linejoin:miter;stroke-miterlimit:4;stroke-dasharray:2, 2;stroke-dashoffset:0;stroke-opacity:1"
             id="path569" /></g></g></g><g
       id="g571"><g
         id="g573"
         clip-path="url(#clipPath577)"><g
           id="g579"
           transform="matrix(0,1,1,0,318.99,516.0447)"><path
             d="M 0,0 H 381.3678"
             style="fill:none;stroke:#ffffff;stroke-width:2;stroke-linecap:butt;stroke-linejoin:miter;stroke-miterlimit:4;stroke-dasharray:2, 2;stroke-dashoffset:0;stroke-opacity:1"
             id="path581" /></g></g></g><g
       id="g583"><g
         id="g585"
         clip-path="url(#clipPath589)"><g
           id="g591"
           transform="matrix(1,0,0,-1,320.0394,896.2259)"><path
             d="m 0,0.3263216 215.4793,-0.31240347 1,-0.0014498"
             style="fill:none;stroke:#ffffff;stroke-width:2;stroke-linecap:butt;stroke-linejoin:miter;stroke-miterlimit:4;stroke-dasharray:2, 2;stroke-dashoffset:0;stroke-opacity:1"
             id="path593" /></g><path
           d="m 535.5256,891.4119 9.5931,4.814 -9.607,4.786 z"
           style="fill:#ffffff;fill-opacity:1;fill-rule:nonzero;stroke:none"
           id="path595" /></g></g><g
       id="g597"><g
         id="g599"
         clip-path="url(#clipPath603)"><g
           id="g605"
           transform="matrix(1,0,0,-1,320.0006,515.7418)"><path
             d="m 0,0.7270674 215.5595,-0.69606799 1,-0.0032291"
             style="fill:none;stroke:#ffffff;stroke-width:2;stroke-linecap:butt;stroke-linejoin:miter;stroke-miterlimit:4;stroke-dasharray:2, 2;stroke-dashoffset:0;stroke-opacity:1"
             id="path607" /></g><path
           d="m 535.5756,510.9108 9.5845,4.831 -9.6155,4.769 z"
           style="fill:#ffffff;fill-opacity:1;fill-rule:nonzero;stroke:none"
           id="path609" /></g></g><g
       id="g611"><g
         id="g613"
         clip-path="url(#clipPath617)"><g
           id="g619"
           transform="translate(196.307,749.8009)"><text
             transform="scale(1,-1)"
             style="font-variant:normal;font-weight:normal;font-size:30px;font-family:'Helvetica Neue';-inkscape-font-specification:HelveticaNeue;writing-mode:lr-tb;fill:#ffffff;fill-opacity:1;fill-rule:nonzero;stroke:none"
             id="text623"><tspan
               x="0 7.77 24.450001 42.240002 58.919998"
               y="0"
               sodipodi:role="line"
               id="tspan621">Input</tspan></text></g></g></g><g
       id="g625"><g
         id="g627"
         clip-path="url(#clipPath631)"><g
           id="g633"
           transform="matrix(1,0,0,-1,1049.356,414.5125)"><path
             d="m 0,0.1680891 295.8016,-0.16280538 1,-5.5039e-4"
             style="fill:none;stroke:#ffffff;stroke-width:2;stroke-linecap:butt;stroke-linejoin:miter;stroke-miterlimit:4;stroke-dasharray:none;stroke-opacity:1"
             id="path635" /></g><path
           d="m 1345.16,409.7073 9.597,4.8052 -9.602,4.7948 0.01,-9.6 z"
           style="fill:#ffffff;fill-opacity:1;fill-rule:nonzero;stroke:none"
           id="path637" /></g></g><g
       id="g639"><g
         id="g641"
         clip-path="url(#clipPath645)"><g
           id="g647"
           transform="matrix(1,0,0,-1,1049.356,616.7632)"><path
             d="m 0,0.1680891 295.8016,-0.16280538 1,-5.5039e-4"
             style="fill:none;stroke:#ffffff;stroke-width:2;stroke-linecap:butt;stroke-linejoin:miter;stroke-miterlimit:4;stroke-dasharray:none;stroke-opacity:1"
             id="path649" /></g><path
           d="m 1345.16,611.9579 9.597,4.8053 -9.602,4.7947 0.01,-9.6 z"
           style="fill:#ffffff;fill-opacity:1;fill-rule:nonzero;stroke:none"
           id="path651" /></g></g><g
       id="g653"><g
         id="g655"
         clip-path="url(#clipPath659)"><g
           id="g661"
           transform="matrix(1,0,0,-1,123.6321,123.6264)"><path
             d="m 0,4.014073 1221.839,-3.98278042 1,-0.0032596"
             style="fill:none;stroke:#ffffff;stroke-width:2;stroke-linecap:butt;stroke-linejoin:miter;stroke-miterlimit:4;stroke-dasharray:2, 2;stroke-dashoffset:0;stroke-opacity:1"
             id="path663" /></g><path
           d="m 1345.487,118.7951 9.584,4.8313 -9.616,4.7687 z"
           style="fill:#ffffff;fill-opacity:1;fill-rule:nonzero;stroke:none"
           id="path665" /></g></g><g
       id="g667"><g
         id="g669"
         clip-path="url(#clipPath673)"><g
           id="g675"
           transform="translate(1503.86,765.1182)"><text
             transform="scale(1,-1)"
             style="font-variant:normal;font-weight:bold;font-size:30px;font-family:'Helvetica Neue';-inkscape-font-specification:HelveticaNeue-Bold;writing-mode:lr-tb;fill:#ffffff;fill-opacity:1;fill-rule:nonzero;stroke:none"
             id="text679"><tspan
               x="0 22.23 29.969999 46.080002 56.639999 64.379997 72.120003 79.860001 97.080002 107.64 115.38 133.71001 151.5 159.84 177.63 195.96001 212.07001"
               y="0"
               sodipodi:role="line"
               id="tspan677">Distillation Loss</tspan></text></g></g></g><g
       id="g681"><g
         id="g683"
         clip-path="url(#clipPath687)"><g
           id="g689"
           transform="translate(1503.86,280.937)"><text
             transform="scale(1,-1)"
             style="font-variant:normal;font-weight:bold;font-size:30px;font-family:'Helvetica Neue';-inkscape-font-specification:HelveticaNeue-Bold;writing-mode:lr-tb;fill:#ffffff;fill-opacity:1;fill-rule:nonzero;stroke:none"
             id="text693"><tspan
               x="0 22.23 29.969999 47.189999 63.299999 79.410004"
               y="0"
               sodipodi:role="line"
               id="tspan691">Classi</tspan></text></g><g
           id="g695"
           transform="translate(1503.86,280.937)"><text
             transform="matrix(1,0,0,-1,87.15,0)"
             style="font-variant:normal;font-weight:bold;font-size:30px;font-family:'Helvetica Neue';-inkscape-font-specification:HelveticaNeue-Bold;writing-mode:lr-tb;fill:#ffffff;fill-opacity:1;fill-rule:nonzero;stroke:none"
             id="text699"><tspan
               x="0"
               y="0"
               id="tspan697">f</tspan></text></g><g
           id="g701"
           transform="translate(1503.86,280.937)"><text
             transform="matrix(1,0,0,-1,105.48,0)"
             style="font-variant:normal;font-weight:bold;font-size:30px;font-family:'Helvetica Neue';-inkscape-font-specification:HelveticaNeue-Bold;writing-mode:lr-tb;fill:#ffffff;fill-opacity:1;fill-rule:nonzero;stroke:none"
             id="text705"><tspan
               x="0 17.219999 34.439999 45 52.740002 71.07 88.860001 97.199997 114.99 133.32001 149.42999"
               y="0"
               sodipodi:role="line"
               id="tspan703">cation Loss</tspan></text></g></g></g><g
       id="g707"><g
         id="g709"
         clip-path="url(#clipPath713)"><g
           id="g715"
           transform="matrix(0,1,1,0,1462.587,214.6507)"><path
             d="m 10.6,0 h 2 105.0217 2"
             style="fill:none;stroke:#ffffff;stroke-width:4;stroke-linecap:butt;stroke-linejoin:miter;stroke-miterlimit:4;stroke-dasharray:4, 4;stroke-dashoffset:0;stroke-opacity:1"
             id="path717" /></g><path
           d="m 1470.987,328.0723 -8.4,16.8 -8.4,-16.8 8.4,4.2 z"
           style="fill:#ffffff;fill-opacity:1;fill-rule:nonzero;stroke:none"
           id="path719" /><path
           d="m 1454.187,231.4507 8.4,-16.8 8.4,16.8 -8.4,-4.2 z"
           style="fill:#ffffff;fill-opacity:1;fill-rule:nonzero;stroke:none"
           id="path721" /></g></g><g
       id="g723"><g
         id="g725"
         clip-path="url(#clipPath729)"><g
           id="g731"
           transform="matrix(0,1,1,0,1462.587,712.6371)"><path
             d="m 10.6,0 h 2 105.0217 2"
             style="fill:none;stroke:#ffffff;stroke-width:4;stroke-linecap:butt;stroke-linejoin:miter;stroke-miterlimit:4;stroke-dasharray:4, 4;stroke-dashoffset:0;stroke-opacity:1"
             id="path733" /></g><path
           d="m 1470.987,826.0588 -8.4,16.8 -8.4,-16.8 8.4,4.2 z"
           style="fill:#ffffff;fill-opacity:1;fill-rule:nonzero;stroke:none"
           id="path735" /><path
           d="m 1454.187,729.4371 8.4,-16.8 8.4,16.8 -8.4,-4.2 z"
           style="fill:#ffffff;fill-opacity:1;fill-rule:nonzero;stroke:none"
           id="path737" /></g></g></g></svg>
