<?xml version="1.0" encoding="UTF-8" standalone="no"?>
<!-- Created with Inkscape (http://www.inkscape.org/) -->

<svg
   version="1.1"
   id="svg25"
   xml:space="preserve"
   width="2560"
   height="1440"
   viewBox="0 0 2560 1440"
   sodipodi:docname="schedules.svg"
   inkscape:version="1.1.1 (c3084ef, 2021-09-22)"
   xmlns:inkscape="http://www.inkscape.org/namespaces/inkscape"
   xmlns:sodipodi="http://sodipodi.sourceforge.net/DTD/sodipodi-0.dtd"
   xmlns="http://www.w3.org/2000/svg"
   xmlns:svg="http://www.w3.org/2000/svg"><defs
     id="defs29"><clipPath
       clipPathUnits="userSpaceOnUse"
       id="clipPath41"><path
         d="M 0,0 H 1920 V 1080 H 0 Z"
         id="path39" /></clipPath><clipPath
       clipPathUnits="userSpaceOnUse"
       id="clipPath55"><path
         d="M 404.7555,435.5345 H 708.0463 V 597.2501 H 404.7555 Z"
         id="path53" /></clipPath><clipPath
       clipPathUnits="userSpaceOnUse"
       id="clipPath69"><path
         d="M 0,0 H 1920 V 1080 H 0 Z"
         id="path67" /></clipPath><clipPath
       clipPathUnits="userSpaceOnUse"
       id="clipPath81"><path
         d="m 808.3514,435.5345 h 303.2908 V 597.2501 H 808.3514 Z"
         id="path79" /></clipPath><clipPath
       clipPathUnits="userSpaceOnUse"
       id="clipPath95"><path
         d="M 0,0 H 1920 V 1080 H 0 Z"
         id="path93" /></clipPath><clipPath
       clipPathUnits="userSpaceOnUse"
       id="clipPath107"><path
         d="m 1211.947,435.5345 h 303.2908 V 597.2501 H 1211.947 Z"
         id="path105" /></clipPath><clipPath
       clipPathUnits="userSpaceOnUse"
       id="clipPath121"><path
         d="M 0,0 H 1920 V 1080 H 0 Z"
         id="path119" /></clipPath><clipPath
       clipPathUnits="userSpaceOnUse"
       id="clipPath159"><path
         d="M 404.7555,805.0345 H 708.0463 V 966.7501 H 404.7555 Z"
         id="path157" /></clipPath><clipPath
       clipPathUnits="userSpaceOnUse"
       id="clipPath173"><path
         d="M 0,0 H 1920 V 1080 H 0 Z"
         id="path171" /></clipPath><clipPath
       clipPathUnits="userSpaceOnUse"
       id="clipPath185"><path
         d="m 808.3514,805.0345 h 303.2908 V 966.7501 H 808.3514 Z"
         id="path183" /></clipPath><clipPath
       clipPathUnits="userSpaceOnUse"
       id="clipPath199"><path
         d="M 0,0 H 1920 V 1080 H 0 Z"
         id="path197" /></clipPath><clipPath
       clipPathUnits="userSpaceOnUse"
       id="clipPath211"><path
         d="m 1211.948,805.0345 h 303.2908 V 966.7501 H 1211.948 Z"
         id="path209" /></clipPath><clipPath
       clipPathUnits="userSpaceOnUse"
       id="clipPath225"><path
         d="M 0,0 H 1920 V 1080 H 0 Z"
         id="path223" /></clipPath><clipPath
       clipPathUnits="userSpaceOnUse"
       id="clipPath249"><path
         d="m 404.7555,14.88785 h 303.2908 v 161.7156 H 404.7555 Z"
         id="path247" /></clipPath><clipPath
       clipPathUnits="userSpaceOnUse"
       id="clipPath263"><path
         d="M 0,0 H 1920 V 1080 H 0 Z"
         id="path261" /></clipPath><clipPath
       clipPathUnits="userSpaceOnUse"
       id="clipPath275"><path
         d="m 808.3514,14.88785 h 303.2908 v 161.7156 H 808.3514 Z"
         id="path273" /></clipPath><clipPath
       clipPathUnits="userSpaceOnUse"
       id="clipPath289"><path
         d="M 0,0 H 1920 V 1080 H 0 Z"
         id="path287" /></clipPath></defs><sodipodi:namedview
     id="namedview27"
     pagecolor="#ffffff"
     bordercolor="#666666"
     borderopacity="1.0"
     inkscape:pageshadow="2"
     inkscape:pageopacity="0.0"
     inkscape:pagecheckerboard="0"
     showgrid="false"
     inkscape:zoom="0.43125"
     inkscape:cx="1280"
     inkscape:cy="720"
     inkscape:window-width="1323"
     inkscape:window-height="847"
     inkscape:window-x="0"
     inkscape:window-y="25"
     inkscape:window-maximized="0"
     inkscape:current-layer="g31" /><g
     id="g31"
     inkscape:groupmode="layer"
     inkscape:label="Figures (glisseÌ(e)s) 8"
     transform="matrix(1.3333333,0,0,-1.3333333,0,1440)"><g
       id="g33" /><g
       id="g35"><g
         id="g37"
         clip-path="url(#clipPath41)"><path
           d="M 0,0 H 1920 V 1080 H 0 Z"
           style="fill:#232427;fill-opacity:1;fill-rule:nonzero;stroke:none"
           id="path43" /><g
           id="g45"
           transform="matrix(1,0,0,-1,408.2915,597.2501)"><path
             d="M 37.08135,0 H 259.1437 c 10.8815,0 17.4104,0 21.763,1.817151 6.2746,2.283784 11.2174,7.226564 13.5012,13.501209 1.8171,4.3526 1.8171,10.88149 1.8171,21.76299 v 87.55295 c 0,10.8815 0,17.4103 -1.8171,21.7629 -2.2838,6.2747 -7.2266,11.2175 -13.5012,13.5013 -4.3526,1.8171 -10.8815,1.8171 -21.763,1.8171 H 37.08135 c -10.8815,0 -17.41039,0 -21.76299,-1.8171 C 9.043715,157.6147 4.100935,152.6719 1.817151,146.3972 0,142.0446 0,135.5158 0,124.6343 V 37.08135 C 0,26.19985 0,19.67096 1.817151,15.31836 4.100935,9.043715 9.043715,4.100935 15.31836,1.817151 19.67096,0 26.19985,0 37.08135,0 Z"
             style="fill:none;stroke:#ff9301;stroke-width:4;stroke-linecap:butt;stroke-linejoin:miter;stroke-miterlimit:4;stroke-dasharray:none;stroke-opacity:1"
             id="path47" /></g></g></g><g
       id="g49"><g
         id="g51"
         clip-path="url(#clipPath55)"><g
           id="g57"
           transform="translate(498.2888,504.8604)"><text
             transform="scale(1,-1)"
             style="font-variant:normal;font-weight:500;font-size:32px;font-family:'Helvetica Neue';-inkscape-font-specification:HelveticaNeue-Medium;writing-mode:lr-tb;fill:#ff9301;fill-opacity:1;fill-rule:nonzero;stroke:none"
             id="text61"><tspan
               x="0 16.032 27.296 45.088001 52.799999 71.167999 78.879997 97.248001"
               y="0"
               sodipodi:role="line"
               id="tspan59">Training</tspan></text></g></g></g><g
       id="g63"><g
         id="g65"
         clip-path="url(#clipPath69)"><g
           id="g71"
           transform="matrix(1,0,0,-1,811.8875,597.2501)"><path
             d="M 37.08135,0 H 259.1437 c 10.8815,0 17.4104,0 21.763,1.817151 6.2746,2.283784 11.2174,7.226564 13.5012,13.501209 1.8171,4.3526 1.8171,10.88149 1.8171,21.76299 v 87.55295 c 0,10.8815 0,17.4103 -1.8171,21.7629 -2.2838,6.2747 -7.2266,11.2175 -13.5012,13.5013 -4.3526,1.8171 -10.8815,1.8171 -21.763,1.8171 H 37.08135 c -10.8815,0 -17.41039,0 -21.76299,-1.8171 C 9.043715,157.6147 4.100935,152.6719 1.817151,146.3972 0,142.0446 0,135.5158 0,124.6343 V 37.08135 C 0,26.19985 0,19.67096 1.817151,15.31836 4.100935,9.043715 9.043715,4.100935 15.31836,1.817151 19.67096,0 26.19985,0 37.08135,0 Z"
             style="fill:none;stroke:#ff9301;stroke-width:4;stroke-linecap:butt;stroke-linejoin:miter;stroke-miterlimit:4;stroke-dasharray:none;stroke-opacity:1"
             id="path73" /></g></g></g><g
       id="g75"><g
         id="g77"
         clip-path="url(#clipPath81)"><g
           id="g83"
           transform="translate(902.7968,504.8604)"><text
             transform="scale(1,-1)"
             style="font-variant:normal;font-weight:500;font-size:32px;font-family:'Helvetica Neue';-inkscape-font-specification:HelveticaNeue-Medium;writing-mode:lr-tb;fill:#ff9301;fill-opacity:1;fill-rule:nonzero;stroke:none"
             id="text87"><tspan
               x="0 21.344 32.608002 50.976002 69.344002 77.056 95.424004"
               y="0"
               sodipodi:role="line"
               id="tspan85">Pruning</tspan></text></g></g></g><g
       id="g89"><g
         id="g91"
         clip-path="url(#clipPath95)"><g
           id="g97"
           transform="matrix(1,0,0,-1,1215.483,597.2501)"><path
             d="M 37.08135,0 H 259.1437 c 10.8815,0 17.4104,0 21.763,1.817151 6.2746,2.283784 11.2174,7.226564 13.5012,13.501209 1.8171,4.3526 1.8171,10.88149 1.8171,21.76299 v 87.55295 c 0,10.8815 0,17.4103 -1.8171,21.7629 -2.2838,6.2747 -7.2266,11.2175 -13.5012,13.5013 -4.3526,1.8171 -10.8815,1.8171 -21.763,1.8171 H 37.08135 c -10.8815,0 -17.41039,0 -21.76299,-1.8171 C 9.043715,157.6147 4.100935,152.6719 1.817151,146.3972 0,142.0446 0,135.5158 0,124.6343 V 37.08135 C 0,26.19985 0,19.67096 1.817151,15.31836 4.100935,9.043715 9.043715,4.100935 15.31836,1.817151 19.67096,0 26.19985,0 37.08135,0 Z"
             style="fill:none;stroke:#ff9301;stroke-width:4;stroke-linecap:butt;stroke-linejoin:miter;stroke-miterlimit:4;stroke-dasharray:none;stroke-opacity:1"
             id="path99" /></g></g></g><g
       id="g101"><g
         id="g103"
         clip-path="url(#clipPath107)"><g
           id="g109"
           transform="translate(1279.721,504.8604)"><text
             transform="scale(1,-1)"
             style="font-variant:normal;font-weight:500;font-size:32px;font-family:'Helvetica Neue';-inkscape-font-specification:HelveticaNeue-Medium;writing-mode:lr-tb;fill:#ff9301;fill-opacity:1;fill-rule:nonzero;stroke:none"
             id="text113"><tspan
               x="0 18.976 26.688 45.056 62.848 75.295998 85.952003 104.32 122.688 130.39999 148.76801"
               y="0"
               sodipodi:role="line"
               id="tspan111">Fine-tuning</tspan></text></g></g></g><g
       id="g115"><g
         id="g117"
         clip-path="url(#clipPath121)"><g
           id="g123"
           transform="matrix(1,0,0,-1,706.5102,516.3923)"><path
             d="m 0,0 c 31.25908,0 62.51815,0 93.77723,0 h 1"
             style="fill:none;stroke:#ffffff;stroke-width:2;stroke-linecap:butt;stroke-linejoin:miter;stroke-miterlimit:4;stroke-dasharray:none;stroke-opacity:1"
             id="path125" /></g><path
           d="m 800.2875,511.5923 9.6,4.8 -9.6,4.8 z"
           style="fill:#ffffff;fill-opacity:1;fill-rule:nonzero;stroke:none"
           id="path127" /><g
           id="g129"
           transform="matrix(1,0,0,-1,1110.106,516.3923)"><path
             d="m 0,0 c 31.25907,0 62.51813,0 93.7772,0 h 1"
             style="fill:none;stroke:#ffffff;stroke-width:2;stroke-linecap:butt;stroke-linejoin:miter;stroke-miterlimit:4;stroke-dasharray:none;stroke-opacity:1"
             id="path131" /></g><path
           d="m 1203.883,511.5923 9.6,4.8 -9.6,4.8 z"
           style="fill:#ffffff;fill-opacity:1;fill-rule:nonzero;stroke:none"
           id="path133" /><g
           id="g135"
           transform="matrix(0,-1,-1,0,960,650.1552)"><path
             d="m 0,0 h 43.42298 1"
             style="fill:none;stroke:#ffffff;stroke-width:2;stroke-linecap:butt;stroke-linejoin:miter;stroke-miterlimit:4;stroke-dasharray:none;stroke-opacity:1"
             id="path137" /></g><path
           d="m 955.2,606.7322 4.8,-9.6 4.8,9.6 z"
           style="fill:#ffffff;fill-opacity:1;fill-rule:nonzero;stroke:none"
           id="path139" /><g
           id="g141"
           transform="matrix(1,0,0,-1,959.3333,650.4656)"><path
             d="M 0,0 H 404.6521"
             style="fill:none;stroke:#ffffff;stroke-width:2;stroke-linecap:butt;stroke-linejoin:miter;stroke-miterlimit:4;stroke-dasharray:none;stroke-opacity:1"
             id="path143" /></g><g
           id="g145"
           transform="matrix(0,-1,-1,0,1363.596,650.1552)"><path
             d="M 0,0 H 53.02298"
             style="fill:none;stroke:#ffffff;stroke-width:2;stroke-linecap:butt;stroke-linejoin:miter;stroke-miterlimit:4;stroke-dasharray:none;stroke-opacity:1"
             id="path147" /></g><g
           id="g149"
           transform="matrix(1,0,0,-1,408.2915,966.7501)"><path
             d="M 37.08135,0 H 259.1437 c 10.8815,0 17.4104,0 21.763,1.817151 6.2746,2.283784 11.2174,7.226564 13.5012,13.501209 1.8171,4.3526 1.8171,10.88149 1.8171,21.76299 v 87.55295 c 0,10.8815 0,17.4103 -1.8171,21.7629 -2.2838,6.2747 -7.2266,11.2175 -13.5012,13.5013 -4.3526,1.8171 -10.8815,1.8171 -21.763,1.8171 H 37.08135 c -10.8815,0 -17.41039,0 -21.76299,-1.8171 C 9.043715,157.6147 4.100935,152.6719 1.817151,146.3972 0,142.0446 0,135.5158 0,124.6343 V 37.08135 C 0,26.19985 0,19.67096 1.817151,15.31836 4.100935,9.043715 9.043715,4.100935 15.31836,1.817151 19.67096,0 26.19985,0 37.08135,0 Z"
             style="fill:none;stroke:#ff9301;stroke-width:4;stroke-linecap:butt;stroke-linejoin:miter;stroke-miterlimit:4;stroke-dasharray:none;stroke-opacity:1"
             id="path151" /></g></g></g><g
       id="g153"><g
         id="g155"
         clip-path="url(#clipPath159)"><g
           id="g161"
           transform="translate(498.2888,874.3604)"><text
             transform="scale(1,-1)"
             style="font-variant:normal;font-weight:500;font-size:32px;font-family:'Helvetica Neue';-inkscape-font-specification:HelveticaNeue-Medium;writing-mode:lr-tb;fill:#ff9301;fill-opacity:1;fill-rule:nonzero;stroke:none"
             id="text165"><tspan
               x="0 16.032 27.296 45.088001 52.799999 71.167999 78.879997 97.248001"
               y="0"
               sodipodi:role="line"
               id="tspan163">Training</tspan></text></g></g></g><g
       id="g167"><g
         id="g169"
         clip-path="url(#clipPath173)"><g
           id="g175"
           transform="matrix(1,0,0,-1,811.8875,966.7501)"><path
             d="M 37.08135,0 H 259.1437 c 10.8815,0 17.4104,0 21.763,1.817151 6.2746,2.283784 11.2174,7.226564 13.5012,13.501209 1.8171,4.3526 1.8171,10.88149 1.8171,21.76299 v 87.55295 c 0,10.8815 0,17.4103 -1.8171,21.7629 -2.2838,6.2747 -7.2266,11.2175 -13.5012,13.5013 -4.3526,1.8171 -10.8815,1.8171 -21.763,1.8171 H 37.08135 c -10.8815,0 -17.41039,0 -21.76299,-1.8171 C 9.043715,157.6147 4.100935,152.6719 1.817151,146.3972 0,142.0446 0,135.5158 0,124.6343 V 37.08135 C 0,26.19985 0,19.67096 1.817151,15.31836 4.100935,9.043715 9.043715,4.100935 15.31836,1.817151 19.67096,0 26.19985,0 37.08135,0 Z"
             style="fill:none;stroke:#ff9301;stroke-width:4;stroke-linecap:butt;stroke-linejoin:miter;stroke-miterlimit:4;stroke-dasharray:none;stroke-opacity:1"
             id="path177" /></g></g></g><g
       id="g179"><g
         id="g181"
         clip-path="url(#clipPath185)"><g
           id="g187"
           transform="translate(902.7968,874.3604)"><text
             transform="scale(1,-1)"
             style="font-variant:normal;font-weight:500;font-size:32px;font-family:'Helvetica Neue';-inkscape-font-specification:HelveticaNeue-Medium;writing-mode:lr-tb;fill:#ff9301;fill-opacity:1;fill-rule:nonzero;stroke:none"
             id="text191"><tspan
               x="0 21.344 32.608002 50.976002 69.344002 77.056 95.424004"
               y="0"
               sodipodi:role="line"
               id="tspan189">Pruning</tspan></text></g></g></g><g
       id="g193"><g
         id="g195"
         clip-path="url(#clipPath199)"><g
           id="g201"
           transform="matrix(1,0,0,-1,1215.484,966.7501)"><path
             d="M 37.08135,0 H 259.1437 c 10.8815,0 17.4104,0 21.763,1.817151 6.2746,2.283784 11.2174,7.226564 13.5012,13.501209 1.8171,4.3526 1.8171,10.88149 1.8171,21.76299 v 87.55295 c 0,10.8815 0,17.4103 -1.8171,21.7629 -2.2838,6.2747 -7.2266,11.2175 -13.5012,13.5013 -4.3526,1.8171 -10.8815,1.8171 -21.763,1.8171 H 37.08135 c -10.8815,0 -17.41039,0 -21.76299,-1.8171 C 9.043715,157.6147 4.100935,152.6719 1.817151,146.3972 0,142.0446 0,135.5158 0,124.6343 V 37.08135 C 0,26.19985 0,19.67096 1.817151,15.31836 4.100935,9.043715 9.043715,4.100935 15.31836,1.817151 19.67096,0 26.19985,0 37.08135,0 Z"
             style="fill:none;stroke:#ff9301;stroke-width:4;stroke-linecap:butt;stroke-linejoin:miter;stroke-miterlimit:4;stroke-dasharray:none;stroke-opacity:1"
             id="path203" /></g></g></g><g
       id="g205"><g
         id="g207"
         clip-path="url(#clipPath211)"><g
           id="g213"
           transform="translate(1279.721,874.3604)"><text
             transform="scale(1,-1)"
             style="font-variant:normal;font-weight:500;font-size:32px;font-family:'Helvetica Neue';-inkscape-font-specification:HelveticaNeue-Medium;writing-mode:lr-tb;fill:#ff9301;fill-opacity:1;fill-rule:nonzero;stroke:none"
             id="text217"><tspan
               x="0 18.976 26.688 45.056 62.848 75.295998 85.952003 104.32 122.688 130.39999 148.76801"
               y="0"
               sodipodi:role="line"
               id="tspan215">Fine-tuning</tspan></text></g></g></g><g
       id="g219"><g
         id="g221"
         clip-path="url(#clipPath225)"><g
           id="g227"
           transform="matrix(1,0,0,-1,706.5102,885.8923)"><path
             d="m 0,0 c 31.25908,0 62.51815,0 93.77723,0 h 1"
             style="fill:none;stroke:#ffffff;stroke-width:2;stroke-linecap:butt;stroke-linejoin:miter;stroke-miterlimit:4;stroke-dasharray:none;stroke-opacity:1"
             id="path229" /></g><path
           d="m 800.2875,881.0923 9.6,4.8 -9.6,4.8 z"
           style="fill:#ffffff;fill-opacity:1;fill-rule:nonzero;stroke:none"
           id="path231" /><g
           id="g233"
           transform="matrix(1,0,0,-1,1110.106,885.8923)"><path
             d="m 0,0 c 31.25911,0 62.51821,0 93.77732,0 h 1"
             style="fill:none;stroke:#ffffff;stroke-width:2;stroke-linecap:butt;stroke-linejoin:miter;stroke-miterlimit:4;stroke-dasharray:none;stroke-opacity:1"
             id="path235" /></g><path
           d="m 1203.884,881.0923 9.6,4.8 -9.6,4.8 z"
           style="fill:#ffffff;fill-opacity:1;fill-rule:nonzero;stroke:none"
           id="path237" /><g
           id="g239"
           transform="matrix(1,0,0,-1,408.2915,176.6035)"><path
             d="M 37.08135,0 H 259.1437 c 10.8815,0 17.4104,0 21.763,1.817151 6.2746,2.283784 11.2174,7.226564 13.5012,13.501209 1.8171,4.3526 1.8171,10.88149 1.8171,21.76299 v 87.55295 c 0,10.8815 0,17.4103 -1.8171,21.7629 -2.2838,6.2747 -7.2266,11.2175 -13.5012,13.5013 -4.3526,1.8171 -10.8815,1.8171 -21.763,1.8171 H 37.08135 c -10.8815,0 -17.41039,0 -21.76299,-1.8171 C 9.043715,157.6147 4.100935,152.6719 1.817151,146.3972 0,142.0446 0,135.5158 0,124.6343 V 37.08135 C 0,26.19985 0,19.67096 1.817151,15.31836 4.100935,9.043715 9.043715,4.100935 15.31836,1.817151 19.67096,0 26.19985,0 37.08135,0 Z"
             style="fill:none;stroke:#ff9301;stroke-width:4;stroke-linecap:butt;stroke-linejoin:miter;stroke-miterlimit:4;stroke-dasharray:none;stroke-opacity:1"
             id="path241" /></g></g></g><g
       id="g243"><g
         id="g245"
         clip-path="url(#clipPath249)"><g
           id="g251"
           transform="translate(498.2889,84.21381)"><text
             transform="scale(1,-1)"
             style="font-variant:normal;font-weight:500;font-size:32px;font-family:'Helvetica Neue';-inkscape-font-specification:HelveticaNeue-Medium;writing-mode:lr-tb;fill:#ff9301;fill-opacity:1;fill-rule:nonzero;stroke:none"
             id="text255"><tspan
               x="0 16.032 27.296 45.088001 52.799999 71.167999 78.879997 97.248001"
               y="0"
               sodipodi:role="line"
               id="tspan253">Training</tspan></text></g></g></g><g
       id="g257"><g
         id="g259"
         clip-path="url(#clipPath263)"><g
           id="g265"
           transform="matrix(1,0,0,-1,811.8875,176.6035)"><path
             d="M 37.08135,0 H 259.1437 c 10.8815,0 17.4104,0 21.763,1.817151 6.2746,2.283784 11.2174,7.226564 13.5012,13.501209 1.8171,4.3526 1.8171,10.88149 1.8171,21.76299 v 87.55295 c 0,10.8815 0,17.4103 -1.8171,21.7629 -2.2838,6.2747 -7.2266,11.2175 -13.5012,13.5013 -4.3526,1.8171 -10.8815,1.8171 -21.763,1.8171 H 37.08135 c -10.8815,0 -17.41039,0 -21.76299,-1.8171 C 9.043715,157.6147 4.100935,152.6719 1.817151,146.3972 0,142.0446 0,135.5158 0,124.6343 V 37.08135 C 0,26.19985 0,19.67096 1.817151,15.31836 4.100935,9.043715 9.043715,4.100935 15.31836,1.817151 19.67096,0 26.19985,0 37.08135,0 Z"
             style="fill:none;stroke:#ff9301;stroke-width:4;stroke-linecap:butt;stroke-linejoin:miter;stroke-miterlimit:4;stroke-dasharray:none;stroke-opacity:1"
             id="path267" /></g></g></g><g
       id="g269"><g
         id="g271"
         clip-path="url(#clipPath275)"><g
           id="g277"
           transform="translate(902.7968,84.21381)"><text
             transform="scale(1,-1)"
             style="font-variant:normal;font-weight:500;font-size:32px;font-family:'Helvetica Neue';-inkscape-font-specification:HelveticaNeue-Medium;writing-mode:lr-tb;fill:#ff9301;fill-opacity:1;fill-rule:nonzero;stroke:none"
             id="text281"><tspan
               x="0 21.344 32.608002 50.976002 69.344002 77.056 95.424004"
               y="0"
               sodipodi:role="line"
               id="tspan279">Pruning</tspan></text></g></g></g><g
       id="g283"><g
         id="g285"
         clip-path="url(#clipPath289)"><g
           id="g291"
           transform="matrix(1,0,0,-1,706.5103,95.74565)"><path
             d="m 0,0 c 31.25907,0 62.51813,0 93.7772,0 h 1"
             style="fill:none;stroke:#ffffff;stroke-width:2;stroke-linecap:butt;stroke-linejoin:miter;stroke-miterlimit:4;stroke-dasharray:none;stroke-opacity:1"
             id="path293" /></g><path
           d="m 800.2875,90.94565 9.6,4.8 -9.6,4.80005 z"
           style="fill:#ffffff;fill-opacity:1;fill-rule:nonzero;stroke:none"
           id="path295" /><g
           id="g297"
           transform="matrix(0,-1,-1,0,556,231.6552)"><path
             d="m 0,0 h 43.42298 1"
             style="fill:none;stroke:#ffffff;stroke-width:2;stroke-linecap:butt;stroke-linejoin:miter;stroke-miterlimit:4;stroke-dasharray:none;stroke-opacity:1"
             id="path299" /></g><path
           d="m 551.2,188.2322 4.8,-9.6 4.8,9.6 z"
           style="fill:#ffffff;fill-opacity:1;fill-rule:nonzero;stroke:none"
           id="path301" /><g
           id="g303"
           transform="matrix(1,0,0,-1,555.3333,231.9656)"><path
             d="M 0,0 H 404.6521"
             style="fill:none;stroke:#ffffff;stroke-width:2;stroke-linecap:butt;stroke-linejoin:miter;stroke-miterlimit:4;stroke-dasharray:none;stroke-opacity:1"
             id="path305" /></g><g
           id="g307"
           transform="matrix(0,-1,-1,0,960,231.6552)"><path
             d="M 0,0 H 53.02298"
             style="fill:none;stroke:#ffffff;stroke-width:2;stroke-linecap:butt;stroke-linejoin:miter;stroke-miterlimit:4;stroke-dasharray:none;stroke-opacity:1"
             id="path309" /></g><g
           id="g311"
           transform="translate(417.452,1032.396)"><text
             transform="scale(1,-1)"
             style="font-variant:normal;font-weight:normal;font-size:48px;font-family:'Helvetica Neue';-inkscape-font-specification:HelveticaNeue;writing-mode:lr-tb;fill:#ffffff;fill-opacity:1;fill-rule:nonzero;stroke:none"
             id="text315"><tspan
               x="0 36.48 63.167999 88.944 107.616 131.616 158.304 185.856 200.976 214.32001 245.424 261.40799 288.09601 314.784 325.44 352.12799"
               y="0"
               sodipodi:role="line"
               id="tspan313">One-shot Pruning</tspan></text></g><g
           id="g317"
           transform="translate(410.62,643.8959)"><text
             transform="scale(1,-1)"
             style="font-variant:normal;font-weight:normal;font-size:48px;font-family:'Helvetica Neue';-inkscape-font-specification:HelveticaNeue;writing-mode:lr-tb;fill:#ffffff;fill-opacity:1;fill-rule:nonzero;stroke:none"
             id="text321"><tspan
               x="0 12.432 27.552 53.327999 69.311996 95.087997 110.208 120.864 144.864 170.64 183.98399 215.088 231.07201 257.76001 284.448 295.104 321.79199"
               y="0"
               sodipodi:role="line"
               id="tspan319">Iterative Pruning</tspan></text></g><g
           id="g323"
           transform="translate(403.232,274.3959)"><text
             transform="scale(1,-1)"
             style="font-variant:normal;font-weight:normal;font-size:48px;font-family:'Helvetica Neue';-inkscape-font-specification:HelveticaNeue;writing-mode:lr-tb;fill:#ffffff;fill-opacity:1;fill-rule:nonzero;stroke:none"
             id="text327"><tspan
               x="0 31.104 57.792 72.912003 100.464 141.408 167.18401 182.304 208.08 236.54401 249.888 286.32001 302.30399 328.07999 356.54401 383.23199 409.008 419.664 433.008 464.112 480.09601 506.784 533.47198 544.12799 570.81598"
               y="0"
               sodipodi:role="line"
               id="tspan325">Automated Gradual Pruning</tspan></text></g></g></g></g></svg>
